<svg width="36" height="36" viewBox="0 0 36 36" fill="none" xmlns="http://www.w3.org/2000/svg">
<path fill-rule="evenodd" clip-rule="evenodd" d="M36 8C36 10.1217 35.1571 12.1566 33.6569 13.6569C32.1566 15.1571 30.1217 16 28 16C25.8783 16 23.8434 15.1571 22.3431 13.6569C20.8429 12.1566 20 10.1217 20 8C20 5.87827 20.8429 3.84344 22.3431 2.34315C23.8434 0.842854 25.8783 0 28 0C30.1217 0 32.1566 0.842854 33.6569 2.34315C35.1571 3.84344 36 5.87827 36 8ZM32.282 8.985C32.2225 9.24324 32.0628 9.46728 31.8382 9.60791C31.6136 9.74854 31.3423 9.79425 31.084 9.735L24.468 8.215C24.2094 8.15559 23.985 7.99589 23.8442 7.77104C23.7033 7.54618 23.6576 7.27459 23.717 7.016C23.7764 6.75741 23.9361 6.53302 24.161 6.39218C24.3858 6.25134 24.6574 6.20559 24.916 6.265L31.532 7.786C31.66 7.81548 31.7809 7.86988 31.8878 7.94609C31.9948 8.0223 32.0857 8.11883 32.1553 8.23016C32.225 8.3415 32.272 8.46547 32.2937 8.59498C32.3155 8.7245 32.3115 8.85703 32.282 8.985Z" fill="#494949"/>
<path d="M10.779 3.24513C10.132 1.71313 7.96603 1.55913 7.09703 2.98213L0.293029 14.1151C-0.491971 15.3991 0.385029 17.0391 1.91603 17.1481L13.782 17.9941C15.312 18.1041 16.426 16.6061 15.842 15.2241L10.779 3.24513Z" fill="#494949"/>
<path fill-rule="evenodd" clip-rule="evenodd" d="M29.3847 30.3599C30.8269 29.6875 31.943 28.4696 32.4873 26.9743C33.0316 25.479 32.9596 23.8287 32.2872 22.3864C31.6147 20.9442 30.3969 19.8281 28.9015 19.2838C27.4062 18.7395 25.7559 18.8115 24.3137 19.4839L13.4377 24.5539C11.9953 25.2264 10.8791 26.4443 10.3347 27.9397C9.79027 29.4351 9.86221 31.0855 10.5347 32.5279C11.2071 33.9703 12.425 35.0865 13.9204 35.6309C15.4158 36.1753 17.0663 36.1034 18.5087 35.4309L29.3847 30.3599ZM23.9427 30.6899L28.5397 28.5469C29.4904 28.092 30.2231 27.2802 30.5787 26.288C30.9342 25.2958 30.8837 24.2034 30.4383 23.2482C29.9928 22.293 29.1883 21.5522 28.1997 21.1868C27.2111 20.8214 26.1183 20.861 25.1587 21.2969L20.5617 23.4399L23.9427 30.6899Z" fill="#494949"/>
</svg>
