<svg width="20" height="20" viewBox="0 0 20 20" fill="none" xmlns="http://www.w3.org/2000/svg">
<path fill-rule="evenodd" clip-rule="evenodd" d="M12.1967 0.617745C11.6501 1.33515 11.3186 2.18093 11.2378 3.06435C11.157 3.94777 11.3299 4.83551 11.738 5.63232C12.1462 6.42914 12.7741 7.10497 13.5545 7.58731C14.3348 8.06965 15.2382 8.34031 16.1676 8.37025V8.38049C16.1823 8.56469 16.1969 8.75355 16.2164 8.9359C16.4477 11.0264 16.9745 12.4619 17.4809 13.4043C17.8175 14.0323 18.1482 14.4491 18.3824 14.7012C18.4851 14.8124 18.596 14.9165 18.7141 15.0129L18.7238 15.0184C18.849 15.1051 18.9422 15.2273 18.99 15.3676C19.0378 15.5079 19.0377 15.659 18.9898 15.7993C18.9419 15.9395 18.8486 16.0617 18.7234 16.1482C18.5981 16.2348 18.4473 16.2812 18.2926 16.2809H0.730874C0.576528 16.2807 0.426192 16.234 0.301365 16.1475C0.176537 16.0609 0.0836112 15.9389 0.0358756 15.799C-0.0118601 15.659 -0.0119608 15.5082 0.0355881 15.3682C0.0831369 15.2282 0.1759 15.1061 0.300612 15.0194L0.308417 15.0129L0.370859 14.9626C0.429398 14.9124 0.524036 14.8277 0.641114 14.7012C0.875271 14.45 1.20602 14.0332 1.54262 13.4052C2.21582 12.1502 2.92609 10.029 2.92609 6.65192C2.92609 4.90195 3.60905 3.21525 4.83837 1.96487C6.06964 0.712639 7.74971 0 9.51174 0C9.88509 0 10.2536 0.0313213 10.6172 0.0939641C10.8494 0.133969 11.6104 0.360041 12.1967 0.617745Z" fill="#334EAC"/>
<path fill-rule="evenodd" clip-rule="evenodd" d="M12.6808 3.48877C12.6808 2.56349 13.0663 1.67611 13.7524 1.02184C14.4386 0.367566 15.3692 0 16.3395 0C17.3099 0 18.2405 0.367566 18.9266 1.02184C19.6127 1.67611 19.9982 2.56349 19.9982 3.48877C19.9982 4.41405 19.6127 5.30143 18.9266 5.9557C18.2405 6.60997 17.3099 6.97754 16.3395 6.97754C15.3692 6.97754 14.4386 6.60997 13.7524 5.9557C13.0663 5.30143 12.6808 4.41405 12.6808 3.48877ZM7.45523 17.7704C7.53838 17.7244 7.63021 17.6946 7.72547 17.6825C7.82073 17.6704 7.91756 17.6763 8.01042 17.6999C8.10328 17.7234 8.19037 17.7642 8.2667 17.8199C8.34302 17.8756 8.4071 17.9451 8.45527 18.0244C8.56251 18.2005 8.71637 18.3467 8.90146 18.4483C9.08655 18.5499 9.29638 18.6034 9.50995 18.6034C9.72353 18.6034 9.93335 18.5499 10.1184 18.4483C10.3035 18.3467 10.4574 18.2005 10.5646 18.0244C10.6129 17.9451 10.677 17.8756 10.7534 17.82C10.8298 17.7643 10.9169 17.7236 11.0098 17.7C11.1027 17.6765 11.1996 17.6706 11.2949 17.6828C11.3902 17.6949 11.482 17.7249 11.5652 17.7709C11.6483 17.8169 11.7212 17.878 11.7795 17.9509C11.8379 18.0237 11.8806 18.1068 11.9053 18.1954C11.93 18.284 11.9361 18.3763 11.9234 18.4672C11.9107 18.5581 11.8793 18.6456 11.831 18.7249C11.5952 19.1127 11.2567 19.4346 10.8493 19.6584C10.4419 19.8822 9.98008 20 9.50995 20C9.03983 20 8.57796 19.8822 8.1706 19.6584C7.76324 19.4346 7.4247 19.1127 7.18888 18.7249C7.14054 18.6456 7.10909 18.5579 7.09632 18.467C7.08355 18.3761 7.08971 18.2836 7.11445 18.195C7.13919 18.1063 7.18202 18.0232 7.2405 17.9503C7.29897 17.8775 7.37194 17.8163 7.45523 17.7704Z" fill="#AB3737"/>
</svg>
