<svg width="18" height="17" viewBox="0 0 18 17" fill="none" xmlns="http://www.w3.org/2000/svg">
<path d="M7.6875 9.35417V11.0208C7.6875 11.2569 7.7675 11.455 7.9275 11.615C8.0875 11.775 8.28528 11.8547 8.52083 11.8542C8.75639 11.8536 8.95445 11.7736 9.115 11.6142C9.27556 11.4547 9.35528 11.2569 9.35417 11.0208V9.35417H11.0208C11.2569 9.35417 11.455 9.27417 11.615 9.11417C11.775 8.95417 11.8547 8.75639 11.8542 8.52083C11.8536 8.28528 11.7736 8.0875 11.6142 7.9275C11.4547 7.7675 11.2569 7.6875 11.0208 7.6875H9.35417V6.02083C9.35417 5.78472 9.27417 5.58694 9.11417 5.4275C8.95417 5.26806 8.75639 5.18806 8.52083 5.1875C8.28528 5.18694 8.0875 5.26694 7.9275 5.4275C7.7675 5.58806 7.6875 5.78583 7.6875 6.02083V7.6875H6.02083C5.78472 7.6875 5.58694 7.7675 5.4275 7.9275C5.26806 8.0875 5.18806 8.28528 5.1875 8.52083C5.18694 8.75639 5.26694 8.95444 5.4275 9.115C5.58806 9.27555 5.78583 9.35528 6.02083 9.35417H7.6875ZM8.52083 16.0208C7.47917 16.0208 6.50361 15.8231 5.59417 15.4275C4.68472 15.0319 3.89306 14.4972 3.21917 13.8233C2.54528 13.1494 2.01056 12.3578 1.615 11.4483C1.21944 10.5389 1.02139 9.56306 1.02083 8.52083C1.02028 7.47861 1.21833 6.50306 1.615 5.59417C2.01167 4.68528 2.54611 3.89361 3.21833 3.21917C3.89056 2.54472 4.68222 2.01 5.59333 1.615C6.50445 1.22 7.48028 1.02194 8.52083 1.02083C9.56139 1.01972 10.5372 1.21778 11.4483 1.615C12.3594 2.01222 13.1511 2.54694 13.8233 3.21917C14.4956 3.89139 15.0303 4.68306 15.4275 5.59417C15.8247 6.50528 16.0225 7.48083 16.0208 8.52083C16.0192 9.56083 15.8214 10.5367 15.4275 11.4483C15.0336 12.36 14.4989 13.1517 13.8233 13.8233C13.1478 14.495 12.3561 15.0297 11.4483 15.4275C10.5406 15.8253 9.56472 16.0231 8.52083 16.0208ZM0.229167 3.77083C0.0763889 3.61806 0 3.42361 0 3.1875C0 2.95139 0.0763889 2.75694 0.229167 2.60417L2.60417 0.229167C2.75694 0.0763888 2.95139 0 3.1875 0C3.42361 0 3.61806 0.0763888 3.77083 0.229167C3.92361 0.381944 4 0.576389 4 0.8125C4 1.04861 3.92361 1.24306 3.77083 1.39583L1.39583 3.77083C1.24306 3.92361 1.04861 4 0.8125 4C0.576389 4 0.381944 3.92361 0.229167 3.77083ZM16.8125 3.77083C16.6597 3.92361 16.4653 4 16.2292 4C15.9931 4 15.7986 3.92361 15.6458 3.77083L13.2708 1.39583C13.1181 1.24306 13.0417 1.04861 13.0417 0.8125C13.0417 0.576389 13.1181 0.381944 13.2708 0.229167C13.4236 0.0763888 13.6181 0 13.8542 0C14.0903 0 14.2847 0.0763888 14.4375 0.229167L16.8125 2.60417C16.9653 2.75694 17.0417 2.95139 17.0417 3.1875C17.0417 3.42361 16.9653 3.61806 16.8125 3.77083ZM8.52083 14.3542C10.1458 14.3542 11.5244 13.7883 12.6567 12.6567C13.7889 11.525 14.3547 10.1464 14.3542 8.52083C14.3536 6.89528 13.7878 5.51694 12.6567 4.38583C11.5256 3.25472 10.1469 2.68861 8.52083 2.6875C6.89472 2.68639 5.51639 3.2525 4.38583 4.38583C3.25528 5.51917 2.68917 6.8975 2.6875 8.52083C2.68583 10.1442 3.25194 11.5228 4.38583 12.6567C5.51972 13.7906 6.89806 14.3564 8.52083 14.3542Z" fill="#EBEDF7"/>
</svg>
