<svg width="48" height="48" viewBox="0 0 48 48" fill="none" xmlns="http://www.w3.org/2000/svg">
<rect width="48" height="48" rx="24" fill="#334EAC"/>
<path d="M29.1429 15.6748H18.8571C18.6298 15.6748 18.4118 15.7644 18.2511 15.9238C18.0903 16.0832 18 16.2994 18 16.5248V31.8246C18 31.9871 18.0469 32.1462 18.1353 32.283C18.2237 32.4198 18.3497 32.5287 18.4985 32.5967C18.6474 32.6646 18.8127 32.6889 18.975 32.6665C19.1373 32.6442 19.2898 32.5762 19.4143 32.4706L24 28.6541L28.5343 32.4281C28.6144 32.5068 28.7094 32.5692 28.8138 32.6115C28.9182 32.6538 29.0301 32.6752 29.1429 32.6746C29.2553 32.6774 29.3668 32.6542 29.4686 32.6066C29.6251 32.5428 29.7591 32.4345 29.8537 32.2954C29.9482 32.1562 29.9992 31.9924 30 31.8246V16.5248C30 16.2994 29.9097 16.0832 29.7489 15.9238C29.5882 15.7644 29.3702 15.6748 29.1429 15.6748ZM28.2857 30.0056L24.5486 26.8946C24.3946 26.7674 24.2004 26.6978 24 26.6978C23.7996 26.6978 23.6054 26.7674 23.4514 26.8946L19.7143 30.0056V17.3748H28.2857V30.0056Z" fill="#EBEDF7"/>
</svg>
