<svg width="62" height="62" viewBox="0 0 62 62" fill="none" xmlns="http://www.w3.org/2000/svg">
<path fill-rule="evenodd" clip-rule="evenodd" d="M29.0563 0.0254154L27.5585 0.180538C20.2907 0.905739 12.9686 4.65196 8.01738 10.1821C2.54229 16.2978 -0.239883 23.8872 0.0162161 31.973C0.46245 45.938 10.0662 57.7622 23.6899 61.1284C27.7009 62.0973 31.8646 62.2603 35.9392 61.6079C40.0138 60.9555 43.9182 59.5006 47.4256 57.3279C54.3239 53.0322 59.2614 46.204 61.1774 38.3098C61.8448 35.5913 62 34.2068 62 30.9919C62 27.7769 61.8448 26.3925 61.1774 23.6739C58.1042 11.1284 47.7671 1.89853 34.9039 0.215441C33.8019 0.0719523 29.7936 -0.0560242 29.0563 0.0254154ZM34.3335 6.02868C37.0139 6.36926 39.6193 7.1516 42.0437 8.34389C44.7521 9.66244 46.6224 11.0043 48.8225 13.2031C50.8381 15.1505 52.4852 17.4457 53.6845 19.9781C55.4113 23.5266 56.1912 26.9509 56.1912 30.9919C56.2425 34.8497 55.3641 38.6632 53.6302 42.1103C52.9628 43.4715 51.6163 45.6549 50.9877 46.3956L50.7743 46.6477L33.0685 28.9481L15.3589 11.2524L15.6111 11.0392C16.3522 10.4109 18.5368 9.06521 19.8988 8.39818C24.3662 6.18703 29.3932 5.36183 34.3335 6.02868ZM29.0059 33.0628L46.7 50.7507L46.44 50.9562C45.0863 51.9544 43.6507 52.8366 42.1484 53.5933C39.7162 54.7801 37.1157 55.5858 34.4383 55.9822C32.793 56.2343 29.2542 56.2343 27.609 55.9822C20.0502 54.8343 13.671 50.7119 9.65486 44.3751C8.66697 42.7382 7.84295 41.008 7.19476 39.2095C5.67039 34.7331 5.41655 29.9222 6.46138 25.3105C7.26309 21.9766 8.70765 18.8309 10.7142 16.0496C10.9858 15.6812 11.2303 15.3787 11.2613 15.3787C11.2923 15.3787 19.2741 23.3365 29.0059 33.0628Z" fill="#334EAC"/>
</svg>
