<svg width="20" height="20" viewBox="0 0 20 20" fill="none" xmlns="http://www.w3.org/2000/svg">
<path d="M14.72 8.125L14.5512 8.065L13.1325 5.405C12.866 4.90511 12.4687 4.48706 11.983 4.19555C11.4973 3.90404 10.9415 3.75003 10.375 3.75H6.8025C6.14647 3.74997 5.50706 3.95641 4.9749 4.34005C4.44274 4.72369 4.04481 5.26508 3.8375 5.8875L3.16125 7.91625C2.59469 8.15505 2.11116 8.55567 1.7712 9.06795C1.43123 9.58024 1.24993 10.1814 1.25 10.7963V12.1875C1.25 13.075 1.77875 13.8375 2.5375 14.1813C2.63576 14.7442 2.92393 15.2565 3.35401 15.6329C3.7841 16.0092 4.33013 16.2268 4.90117 16.2494C5.4722 16.2721 6.03376 16.0984 6.49231 15.7574C6.95085 15.4163 7.2787 14.9284 7.42125 14.375H12.5787C12.7213 14.9284 13.0491 15.4163 13.5077 15.7574C13.9662 16.0984 14.5278 16.2721 15.0988 16.2494C15.6699 16.2268 16.2159 16.0092 16.646 15.6329C17.0761 15.2565 17.3642 14.7442 17.4625 14.1813C17.8462 14.008 18.1718 13.7278 18.4001 13.3742C18.6285 13.0205 18.75 12.6085 18.75 12.1875V11.7638C18.7499 11.1187 18.5502 10.4894 18.1782 9.96233C17.8062 9.43527 17.2803 9.03624 16.6725 8.82L14.785 8.14875V8.125H14.72ZM6.8025 5H8.125V8.125H4.40875L5.0225 6.2825C5.14694 5.90889 5.38585 5.58394 5.70535 5.35374C6.02484 5.12354 6.40871 4.99977 6.8025 5ZM9.375 5H10.375C10.7149 4.99988 11.0485 5.09217 11.34 5.26699C11.6315 5.44181 11.87 5.69259 12.03 5.9925L13.1675 8.125H9.375V5ZM14.5037 9.375L16.2537 9.9975C16.6184 10.1273 16.9339 10.3667 17.157 10.683C17.3802 10.9992 17.5 11.3767 17.5 11.7638V12.1875C17.5 12.4062 17.425 12.6075 17.3 12.7675C17.0952 12.2869 16.7451 11.8825 16.2987 11.6112C15.8523 11.3398 15.3322 11.2151 14.8113 11.2545C14.2904 11.294 13.7949 11.4956 13.3945 11.8311C12.9941 12.1666 12.7088 12.6191 12.5787 13.125H7.42125C7.2912 12.6191 7.00593 12.1666 6.6055 11.8311C6.20508 11.4956 5.70962 11.294 5.18872 11.2545C4.66783 11.2151 4.14766 11.3398 3.70128 11.6112C3.25491 11.8825 2.90475 12.2869 2.7 12.7675C2.57017 12.6021 2.49973 12.3978 2.5 12.1875V10.7963C2.5 10.2338 2.75 9.72125 3.15 9.375H14.5037ZM3.75 13.75C3.75 13.4185 3.8817 13.1005 4.11612 12.8661C4.35054 12.6317 4.66848 12.5 5 12.5C5.33152 12.5 5.64946 12.6317 5.88388 12.8661C6.1183 13.1005 6.25 13.4185 6.25 13.75C6.25 14.0815 6.1183 14.3995 5.88388 14.6339C5.64946 14.8683 5.33152 15 5 15C4.66848 15 4.35054 14.8683 4.11612 14.6339C3.8817 14.3995 3.75 14.0815 3.75 13.75ZM15 12.5C15.3315 12.5 15.6495 12.6317 15.8839 12.8661C16.1183 13.1005 16.25 13.4185 16.25 13.75C16.25 14.0815 16.1183 14.3995 15.8839 14.6339C15.6495 14.8683 15.3315 15 15 15C14.6685 15 14.3505 14.8683 14.1161 14.6339C13.8817 14.3995 13.75 14.0815 13.75 13.75C13.75 13.4185 13.8817 13.1005 14.1161 12.8661C14.3505 12.6317 14.6685 12.5 15 12.5Z" fill="#6155F5"/>
</svg>
