<svg width="18" height="17" viewBox="0 0 18 17" fill="none" xmlns="http://www.w3.org/2000/svg">
<path opacity="0.5" d="M5.20703 13.125C5.53855 13.125 5.85649 13.2567 6.09091 13.4911C6.32534 13.7255 6.45703 14.0435 6.45703 14.375C6.45703 14.7065 6.32534 15.0245 6.09091 15.2589C5.85649 15.4933 5.53855 15.625 5.20703 15.625C4.87551 15.625 4.55757 15.4933 4.32315 15.2589C4.08873 15.0245 3.95703 14.7065 3.95703 14.375C3.95703 14.0435 4.08873 13.7255 4.32315 13.4911C4.55757 13.2567 4.87551 13.125 5.20703 13.125ZM12.707 13.125C13.0386 13.125 13.3565 13.2567 13.5909 13.4911C13.8253 13.7255 13.957 14.0435 13.957 14.375C13.957 14.7065 13.8253 15.0245 13.5909 15.2589C13.3565 15.4933 13.0386 15.625 12.707 15.625C12.3755 15.625 12.0576 15.4933 11.8231 15.2589C11.5887 15.0245 11.457 14.7065 11.457 14.375C11.457 14.0435 11.5887 13.7255 11.8231 13.4911C12.0576 13.2567 12.3755 13.125 12.707 13.125Z" stroke="black" stroke-width="1.5"/>
<path d="M0.832925 0.0354252C0.676447 -0.0196072 0.504517 -0.0102252 0.354957 0.0615074C0.205397 0.13324 0.0904576 0.261447 0.0354252 0.417925C-0.0196072 0.574403 -0.0102252 0.746333 0.0615075 0.895893C0.13324 1.04545 0.261447 1.16039 0.417925 1.21542L0.832925 0.0354252ZM16.1738 6.36126L16.7854 6.48709L16.7863 6.48376L16.1738 6.36126ZM3.71542 6.25876V3.99042H2.46542V6.25876H3.71542ZM1.05042 0.112092L0.832925 0.0354252L0.417925 1.21542L0.635425 1.29126L1.05042 0.112092ZM8.07376 11.6671H12.4921V10.4171H8.07376V11.6671ZM3.71542 3.99042C3.71542 3.40126 3.71626 2.90959 3.67376 2.51042C3.62792 2.09626 3.53209 1.71876 3.29709 1.37542L2.26459 2.08042C2.33959 2.19042 2.39792 2.34209 2.43042 2.64459C2.46459 2.96126 2.46542 3.37376 2.46542 3.99042H3.71542ZM0.635425 1.29126C1.19209 1.48709 1.55792 1.61709 1.82709 1.75042C2.07959 1.87376 2.19126 1.97376 2.26459 2.08126L3.29709 1.37542C3.06042 1.02876 2.74459 0.807092 2.37709 0.626258C2.02709 0.454592 1.57876 0.297925 1.05042 0.112092L0.635425 1.29126ZM2.46542 6.25876C2.46542 7.46959 2.47709 8.34209 2.59042 9.00876C2.71292 9.72042 2.95709 10.2304 3.41126 10.7104L4.31876 9.85042C4.05209 9.56876 3.90792 9.29376 3.82292 8.79792C3.73126 8.25626 3.71542 7.49959 3.71542 6.25876H2.46542ZM8.07376 10.4171C6.89292 10.4171 6.07376 10.4154 5.45626 10.3279C4.86042 10.2438 4.54626 10.0904 4.31876 9.85042L3.41126 10.7104C3.90626 11.2329 4.53376 11.4604 5.28042 11.5654C6.00542 11.6688 6.93126 11.6671 8.07376 11.6671V10.4171ZM3.09042 3.85042H13.1988V2.60042H3.09126L3.09042 3.85042ZM15.5613 6.23459L15.1446 8.25542L16.3696 8.50709L16.7854 6.48709L15.5613 6.23459ZM13.2004 3.85042C13.9138 3.85042 14.5421 3.85126 15.0379 3.90626C15.2829 3.93515 15.4696 3.97237 15.5979 4.01792C15.7321 4.06542 15.7538 4.10126 15.7429 4.08709L16.7338 3.32542C16.5379 3.07042 16.2629 2.92626 16.0121 2.83876C15.7409 2.74948 15.4605 2.69078 15.1763 2.66376C14.5971 2.59959 13.8904 2.60042 13.2004 2.60042V3.85042ZM16.7863 6.48376C16.9279 5.77709 17.0479 5.18376 17.0771 4.70876C17.1079 4.22042 17.0521 3.73876 16.7338 3.32542L15.7429 4.08709C15.7946 4.15459 15.8513 4.27542 15.8296 4.63209C15.8071 5.00209 15.7096 5.49626 15.5613 6.23876L16.7863 6.48376ZM12.4921 11.6671C13.1271 11.6671 13.6604 11.6679 14.0904 11.6154C14.5363 11.5613 14.9438 11.4413 15.2988 11.1521L14.5088 10.1829C14.4046 10.2679 14.2571 10.3363 13.9379 10.3746C13.6021 10.4163 13.1588 10.4171 12.4921 10.4171V11.6671ZM15.1463 8.25542C15.0113 8.90792 14.9213 9.34126 14.8129 9.66209C14.7104 9.96709 14.6129 10.0979 14.5088 10.1829L15.2988 11.1521C15.6546 10.8621 15.8538 10.4879 15.9971 10.0613C16.1354 9.65126 16.2421 9.12959 16.3704 8.50792L15.1463 8.25542Z" fill="black"/>
<path opacity="0.5" d="M9.79167 8.95833V7.29167M9.79167 7.29167V5.625M9.79167 7.29167H11.4583M9.79167 7.29167H8.125" stroke="black" stroke-width="1.5" stroke-linecap="round"/>
</svg>
