<svg width="32" height="34" viewBox="0 0 32 34" fill="none" xmlns="http://www.w3.org/2000/svg">
<path fill-rule="evenodd" clip-rule="evenodd" d="M11.3778 25.284C6.01379 25.284 3.33242 25.284 1.66621 23.4319C-1.50704e-07 21.5824 0 18.6014 0 12.642C0 6.68255 -1.50704e-07 3.70283 1.66621 1.85079C3.33242 -0.00126426 6.01505 2.35004e-09 11.3778 2.35004e-09C16.7405 2.35004e-09 19.4231 0 21.0893 1.85079C22.7556 3.7041 22.7556 6.68255 22.7556 12.642C22.7556 18.6014 22.7556 21.5811 21.0893 23.4319C19.4231 25.2827 16.7405 25.284 11.3778 25.284ZM15.1704 5.05679H7.58519C6.99733 5.05679 6.70404 5.05679 6.46258 5.12126C6.14131 5.20747 5.84836 5.37667 5.61315 5.61189C5.37794 5.8471 5.20874 6.14004 5.12253 6.46131C5.05679 6.7053 5.05679 6.9986 5.05679 7.58519C5.05679 8.17177 5.05679 8.46633 5.12126 8.70779C5.20747 9.02907 5.37667 9.32201 5.61189 9.55722C5.8471 9.79243 6.14004 9.96163 6.46131 10.0478C6.7053 10.1136 6.9986 10.1136 7.58519 10.1136H15.1704C15.7582 10.1136 16.0515 10.1136 16.293 10.0491C16.6143 9.9629 16.9072 9.7937 17.1424 9.55849C17.3776 9.32327 17.5468 9.03033 17.633 8.70906C17.6988 8.46507 17.6988 8.17177 17.6988 7.58519C17.6988 6.9986 17.6988 6.70404 17.6343 6.46258C17.5481 6.1413 17.3789 5.84836 17.1437 5.61315C16.9085 5.37794 16.6155 5.20874 16.2942 5.12253C16.0515 5.05679 15.757 5.05679 15.1704 5.05679ZM7.58519 13.9062C7.58519 14.2415 7.45199 14.563 7.21491 14.8001C6.97783 15.0372 6.65627 15.1704 6.32099 15.1704C5.9857 15.1704 5.66415 15.0372 5.42707 14.8001C5.18998 14.563 5.05679 14.2415 5.05679 13.9062C5.05679 13.5709 5.18998 13.2493 5.42707 13.0123C5.66415 12.7752 5.9857 12.642 6.32099 12.642C6.65627 12.642 6.97783 12.7752 7.21491 13.0123C7.45199 13.2493 7.58519 13.5709 7.58519 13.9062ZM11.3778 15.1704C11.7131 15.1704 12.0346 15.0372 12.2717 14.8001C12.5088 14.563 12.642 14.2415 12.642 13.9062C12.642 13.5709 12.5088 13.2493 12.2717 13.0123C12.0346 12.7752 11.7131 12.642 11.3778 12.642C11.0425 12.642 10.7209 12.7752 10.4839 13.0123C10.2468 13.2493 10.1136 13.5709 10.1136 13.9062C10.1136 14.2415 10.2468 14.563 10.4839 14.8001C10.7209 15.0372 11.0425 15.1704 11.3778 15.1704ZM17.6988 13.9062C17.6988 14.2415 17.5656 14.563 17.3285 14.8001C17.0914 15.0372 16.7699 15.1704 16.4346 15.1704C16.0993 15.1704 15.7777 15.0372 15.5406 14.8001C15.3036 14.563 15.1704 14.2415 15.1704 13.9062C15.1704 13.5709 15.3036 13.2493 15.5406 13.0123C15.7777 12.7752 16.0993 12.642 16.4346 12.642C16.7699 12.642 17.0914 12.7752 17.3285 13.0123C17.5656 13.2493 17.6988 13.5709 17.6988 13.9062ZM16.4346 20.2272C16.7699 20.2272 17.0914 20.094 17.3285 19.8569C17.5656 19.6198 17.6988 19.2983 17.6988 18.963C17.6988 18.6277 17.5656 18.3061 17.3285 18.069C17.0914 17.832 16.7699 17.6988 16.4346 17.6988C16.0993 17.6988 15.7777 17.832 15.5406 18.069C15.3036 18.3061 15.1704 18.6277 15.1704 18.963C15.1704 19.2983 15.3036 19.6198 15.5406 19.8569C15.7777 20.094 16.0993 20.2272 16.4346 20.2272ZM12.642 18.963C12.642 19.2983 12.5088 19.6198 12.2717 19.8569C12.0346 20.094 11.7131 20.2272 11.3778 20.2272C11.0425 20.2272 10.7209 20.094 10.4839 19.8569C10.2468 19.6198 10.1136 19.2983 10.1136 18.963C10.1136 18.6277 10.2468 18.3061 10.4839 18.069C10.7209 17.832 11.0425 17.6988 11.3778 17.6988C11.7131 17.6988 12.0346 17.832 12.2717 18.069C12.5088 18.3061 12.642 18.6277 12.642 18.963ZM6.32099 20.2272C6.65627 20.2272 6.97783 20.094 7.21491 19.8569C7.45199 19.6198 7.58519 19.2983 7.58519 18.963C7.58519 18.6277 7.45199 18.3061 7.21491 18.069C6.97783 17.832 6.65627 17.6988 6.32099 17.6988C5.9857 17.6988 5.66415 17.832 5.42707 18.069C5.18998 18.3061 5.05679 18.6277 5.05679 18.963C5.05679 19.2983 5.18998 19.6198 5.42707 19.8569C5.66415 20.094 5.9857 20.2272 6.32099 20.2272Z" fill="#E0E4F3"/>
<path d="M24.126 28.6826L22.2646 30.5449L22.2598 30.5508C21.61 31.2099 20.8356 31.734 19.9824 32.0928C19.1293 32.4515 18.2136 32.6383 17.2881 32.6416C16.3624 32.6449 15.4447 32.465 14.5889 32.1123C13.7331 31.7596 12.9553 31.2404 12.3008 30.5859C11.6464 29.9314 11.128 29.1536 10.7754 28.2979C10.4228 27.4421 10.2428 26.5251 10.2461 25.5996C10.2494 24.6739 10.4361 23.7576 10.7949 22.9043C11.1537 22.0512 11.6779 21.2777 12.3369 20.6279L12.3418 20.6221L14.2031 18.7598L24.126 28.6826ZM23.96 11.8857C24.8855 11.8825 25.8025 12.0624 26.6582 12.415C27.5139 12.7677 28.2918 13.286 28.9463 13.9404C29.6008 14.5949 30.1199 15.3728 30.4727 16.2285C30.8254 17.0844 31.0053 18.002 31.002 18.9277C30.9986 19.8532 30.8118 20.7689 30.4531 21.6221C30.0943 22.4753 29.5703 23.2496 28.9111 23.8994L28.9053 23.9043L27.043 25.7656L17.1201 15.8428L18.9824 13.9814L18.9883 13.9766C19.638 13.3175 20.4115 12.7934 21.2646 12.4346C22.118 12.0757 23.0343 11.8891 23.96 11.8857Z" fill="#E0E4F3" stroke="#334EAC" stroke-width="2"/>
</svg>
