<svg width="16" height="16" viewBox="0 0 16 16" fill="none" xmlns="http://www.w3.org/2000/svg">
<path d="M7.9987 1.33301C11.6807 1.33301 14.6654 4.31767 14.6654 7.99967C14.6654 11.6817 11.6807 14.6663 7.9987 14.6663C4.3167 14.6663 1.33203 11.6817 1.33203 7.99967C1.33203 4.31767 4.3167 1.33301 7.9987 1.33301ZM7.9987 2.66634C6.58421 2.66634 5.22766 3.22824 4.22746 4.22844C3.22727 5.22863 2.66536 6.58519 2.66536 7.99967C2.66536 9.41416 3.22727 10.7707 4.22746 11.7709C5.22766 12.7711 6.58421 13.333 7.9987 13.333C9.41319 13.333 10.7697 12.7711 11.7699 11.7709C12.7701 10.7707 13.332 9.41416 13.332 7.99967C13.332 6.58519 12.7701 5.22863 11.7699 4.22844C10.7697 3.22824 9.41319 2.66634 7.9987 2.66634ZM7.9987 3.99967C8.16199 3.9997 8.31959 4.05965 8.44161 4.16815C8.56364 4.27666 8.64159 4.42617 8.6607 4.58834L8.66536 4.66634V7.72367L10.47 9.52834C10.5896 9.64831 10.659 9.8093 10.6642 9.9786C10.6694 10.1479 10.6099 10.3128 10.4979 10.4399C10.3858 10.5669 10.2297 10.6465 10.061 10.6626C9.89243 10.6787 9.72403 10.6299 9.59003 10.5263L9.52736 10.471L7.52736 8.47101C7.42375 8.36731 7.35721 8.23234 7.33803 8.08701L7.33203 7.99967V4.66634C7.33203 4.48953 7.40227 4.31996 7.52729 4.19494C7.65232 4.06991 7.82189 3.99967 7.9987 3.99967Z" fill="#494949"/>
</svg>
