<svg width="16" height="16" viewBox="0 0 16 16" fill="none" xmlns="http://www.w3.org/2000/svg">
<g clip-path="url(#clip0_2869_4559)">
<path d="M10.8958 6.2147C10.9598 6.15499 11.0115 6.08326 11.0478 6.00359C11.0841 5.92391 11.1044 5.83787 11.1074 5.75037C11.1105 5.66286 11.0963 5.57561 11.0657 5.4936C11.035 5.41158 10.9885 5.33641 10.9288 5.27237C10.8691 5.20833 10.7973 5.15667 10.7177 5.12035C10.638 5.08404 10.552 5.06377 10.4644 5.0607C10.3769 5.05764 10.2897 5.07184 10.2077 5.10249C10.1257 5.13315 10.0505 5.17966 9.98645 5.23937L8.03578 7.05803L6.21711 5.1067C6.09543 4.98206 5.92979 4.91 5.75564 4.90594C5.5815 4.90188 5.41268 4.96614 5.28532 5.08497C5.15795 5.2038 5.08215 5.36776 5.07414 5.54176C5.06613 5.71577 5.12654 5.886 5.24245 6.01603L7.06111 7.9667L5.10978 9.78537C5.04348 9.84447 4.98965 9.91622 4.95147 9.99642C4.91328 10.0766 4.89151 10.1636 4.88742 10.2524C4.88334 10.3411 4.89702 10.4297 4.92768 10.5131C4.95833 10.5965 5.00533 10.6729 5.06593 10.7378C5.12652 10.8027 5.19948 10.8549 5.28052 10.8913C5.36156 10.9276 5.44905 10.9474 5.53784 10.9495C5.62664 10.9516 5.71496 10.9359 5.7976 10.9033C5.88025 10.8708 5.95556 10.8221 6.01911 10.76L7.96978 8.94203L9.78845 10.8927C9.84717 10.9602 9.91889 11.0152 9.99932 11.0545C10.0798 11.0937 10.1673 11.1163 10.2566 11.121C10.346 11.1257 10.4354 11.1123 10.5195 11.0817C10.6036 11.0511 10.6807 11.0039 10.7461 10.9429C10.8116 10.8818 10.8641 10.8083 10.9005 10.7265C10.9369 10.6448 10.9565 10.5565 10.9581 10.4671C10.9597 10.3776 10.9432 10.2887 10.9097 10.2057C10.8762 10.1227 10.8264 10.0473 10.7631 9.98403L8.94511 8.03337L10.8958 6.2147Z" fill="#334EAC"/>
<path fill-rule="evenodd" clip-rule="evenodd" d="M0.667969 7.99984C0.667969 3.94984 3.9513 0.666504 8.0013 0.666504C12.0513 0.666504 15.3346 3.94984 15.3346 7.99984C15.3346 12.0498 12.0513 15.3332 8.0013 15.3332C3.9513 15.3332 0.667969 12.0498 0.667969 7.99984ZM8.0013 13.9998C7.21337 13.9998 6.43316 13.8446 5.7052 13.5431C4.97725 13.2416 4.31581 12.7996 3.75866 12.2425C3.20151 11.6853 2.75955 11.0239 2.45802 10.2959C2.1565 9.56798 2.0013 8.78777 2.0013 7.99984C2.0013 7.21191 2.1565 6.43169 2.45802 5.70374C2.75955 4.97578 3.20151 4.31435 3.75866 3.7572C4.31581 3.20004 4.97725 2.75809 5.7052 2.45656C6.43316 2.15503 7.21337 1.99984 8.0013 1.99984C9.5926 1.99984 11.1187 2.63198 12.2439 3.7572C13.3692 4.88241 14.0013 6.40854 14.0013 7.99984C14.0013 9.59114 13.3692 11.1173 12.2439 12.2425C11.1187 13.3677 9.5926 13.9998 8.0013 13.9998Z" fill="#334EAC"/>
</g>
<defs>
<clipPath id="clip0_2869_4559">
<rect width="16" height="16" fill="white"/>
</clipPath>
</defs>
</svg>
