<svg width="40" height="39" viewBox="0 0 40 39" fill="none" xmlns="http://www.w3.org/2000/svg">
<path d="M31.2437 32.2148C31.3896 32.3783 31.5019 32.5689 31.5741 32.7757C31.6463 32.9826 31.677 33.2016 31.6645 33.4203C31.6519 33.6391 31.5964 33.8532 31.501 34.0504C31.4056 34.2477 31.2723 34.4242 31.1087 34.5698L28.4653 36.9265C28.0125 37.3749 27.4754 37.7292 26.885 37.9692C26.2946 38.2092 25.6626 38.3301 25.0253 38.3249C24.3644 38.3262 23.7097 38.197 23.0988 37.9447C22.4879 37.6925 21.9328 37.3221 21.4653 36.8549L18.892 34.5648C18.7285 34.4193 18.5953 34.243 18.4999 34.0459C18.4046 33.8489 18.349 33.635 18.3363 33.4165C18.3107 32.9752 18.4614 32.5417 18.7553 32.2115C19.0493 31.8813 19.4624 31.6814 19.9037 31.6558C20.1222 31.6431 20.3411 31.6736 20.5479 31.7455C20.7546 31.8174 20.9452 31.9293 21.1087 32.0748L23.3337 34.0649V21.6582C23.3337 21.2162 23.5093 20.7922 23.8218 20.4797C24.1344 20.1671 24.5583 19.9915 25.0003 19.9915C25.4424 19.9915 25.8663 20.1671 26.1789 20.4797C26.4914 20.7922 26.667 21.2162 26.667 21.6582V34.0665L28.892 32.0798C29.2219 31.7862 29.6548 31.6354 30.0958 31.6607C30.5367 31.686 30.9496 31.8853 31.2437 32.2148V32.2148ZM30.5937 10.5932C30.3075 10.5043 30.0478 10.3459 29.8378 10.1321C29.6278 9.91837 29.4741 9.6559 29.3903 9.36818C28.5079 6.535 26.7055 4.07716 24.2686 2.38387C21.8317 0.690571 18.8996 -0.14141 15.9365 0.0196659C12.9734 0.180742 10.1488 1.32567 7.90981 3.27315C5.67083 5.22063 4.1455 7.85936 3.57534 10.7715C2.99032 13.7165 3.46245 16.7735 4.90868 19.4048C3.22276 20.2753 1.85186 21.6519 0.988539 23.3415C0.125222 25.0311 -0.187134 26.9486 0.0953451 28.8248C0.529764 31.0045 1.6967 32.97 3.40237 34.395C5.10804 35.8199 7.24981 36.6185 9.47201 36.6582H13.3337C13.7757 36.6582 14.1996 36.4826 14.5122 36.17C14.8247 35.8575 15.0003 35.4335 15.0003 34.9915C15.0003 34.5495 14.8247 34.1256 14.5122 33.813C14.1996 33.5004 13.7757 33.3248 13.3337 33.3248H9.47201C8.04861 33.2975 6.67568 32.7927 5.57366 31.8914C4.47164 30.99 3.70448 29.7445 3.39534 28.3548C3.21436 27.1608 3.41184 25.94 3.96005 24.8639C4.50826 23.7878 5.37969 22.9104 6.45201 22.3548C7.21633 21.9324 7.78356 21.226 8.03091 20.3885C8.27827 19.551 8.18586 18.6497 7.77368 17.8798C7.12653 16.6456 6.7445 15.2897 6.6521 13.8992C6.55971 12.5086 6.75899 11.1141 7.23715 9.80507C7.71532 8.49605 8.46181 7.30143 9.42875 6.29783C10.3957 5.29424 11.5617 4.50383 12.8521 3.97731C14.1424 3.4508 15.5285 3.1998 16.9216 3.24042C18.3146 3.28103 19.6837 3.61237 20.9412 4.21317C22.1987 4.81398 23.3167 5.67098 24.2235 6.72921C25.1303 7.78743 25.8059 9.02352 26.207 10.3582C26.4537 11.1627 26.8931 11.8948 27.4871 12.4908C28.0811 13.0868 28.8117 13.5288 29.6153 13.7782C31.7925 14.4407 33.6768 15.8293 34.9542 17.7127C36.2317 19.5961 36.825 21.8604 36.6353 24.1282C36.5098 25.8916 35.8656 27.5784 34.7837 28.9765C34.5143 29.327 34.3951 29.7702 34.4525 30.2086C34.5098 30.647 34.739 31.0446 35.0895 31.314C35.44 31.5834 35.8832 31.7026 36.3216 31.6452C36.76 31.5879 37.1576 31.3587 37.427 31.0082C38.8954 29.0938 39.7755 26.7938 39.9603 24.3882C40.2121 21.3643 39.4196 18.3456 37.7151 15.8352C36.0106 13.3249 33.4971 11.4747 30.5937 10.5932V10.5932Z" fill="#111111"/>
</svg>
