<svg width="24" height="23" viewBox="0 0 24 23" fill="none" xmlns="http://www.w3.org/2000/svg">
<mask id="mask0_1197_1685" style="mask-type:alpha" maskUnits="userSpaceOnUse" x="0" y="0" width="24" height="23">
<rect width="24" height="22.3881" fill="#D9D9D9"/>
</mask>
<g mask="url(#mask0_1197_1685)">
<path d="M7.24944 18.1908C6.4866 18.1908 5.8376 17.9411 5.30244 17.4417C4.7671 16.9425 4.49944 16.3371 4.49944 15.6255H2.13419L2.46869 14.2262H5.01494C5.24694 13.871 5.55944 13.5879 5.95244 13.3769C6.34527 13.1657 6.7776 13.0602 7.24944 13.0602C7.72127 13.0602 8.15369 13.1657 8.54669 13.3769C8.93952 13.5879 9.25202 13.871 9.48419 14.2262H13.8802L16.0284 5.5975H5.07844L5.13994 5.35356C5.21427 5.01385 5.3921 4.73641 5.67344 4.52124C5.95494 4.30591 6.28602 4.19824 6.66669 4.19824H17.9032L17.0359 7.69638H19.5379L22.3937 11.2484L21.4609 15.6255H19.8839C19.8839 16.3371 19.6164 16.9425 19.0812 17.4417C18.5459 17.9411 17.8969 18.1908 17.1342 18.1908C16.3714 18.1908 15.7223 17.9411 15.1869 17.4417C14.6518 16.9425 14.3842 16.3371 14.3842 15.6255H9.99944C9.99944 16.3371 9.73177 16.9425 9.19644 17.4417C8.66127 17.9411 8.01227 18.1908 7.24944 18.1908ZM15.9052 12.244H20.6437L20.7822 11.5837L18.7879 9.09563H16.6917L15.9052 12.244ZM15.8822 6.14647L16.0284 5.5975L13.8802 14.2262L14.0264 13.6773L15.8822 6.14647ZM1.08594 12.278L1.46094 10.8787H6.45144L6.07644 12.278H1.08594ZM3.08594 8.94498L3.46094 7.54572H9.45144L9.07644 8.94498H3.08594ZM7.24944 16.7915C7.59694 16.7915 7.89211 16.6782 8.13494 16.4515C8.37794 16.225 8.49944 15.9496 8.49944 15.6255C8.49944 15.3013 8.37794 15.026 8.13494 14.7995C7.89211 14.5728 7.59694 14.4594 7.24944 14.4594C6.90194 14.4594 6.60677 14.5728 6.36394 14.7995C6.12094 15.026 5.99944 15.3013 5.99944 15.6255C5.99944 15.9496 6.12094 16.225 6.36394 16.4515C6.60677 16.6782 6.90194 16.7915 7.24944 16.7915ZM17.1342 16.7915C17.4815 16.7915 17.7767 16.6782 18.0197 16.4515C18.2627 16.225 18.3842 15.9496 18.3842 15.6255C18.3842 15.3013 18.2627 15.026 18.0197 14.7995C17.7767 14.5728 17.4815 14.4594 17.1342 14.4594C16.7867 14.4594 16.4914 14.5728 16.2484 14.7995C16.0054 15.026 15.8839 15.3013 15.8839 15.6255C15.8839 15.9496 16.0054 16.225 16.2484 16.4515C16.4914 16.6782 16.7867 16.7915 17.1342 16.7915Z" fill="#474545"/>
<path d="M7.24944 18.1908C6.4866 18.1908 5.8376 17.9411 5.30244 17.4417C4.7671 16.9425 4.49944 16.3371 4.49944 15.6255H2.13419L2.46869 14.2262H5.01494C5.24694 13.871 5.55944 13.5879 5.95244 13.3769C6.34527 13.1657 6.7776 13.0602 7.24944 13.0602C7.72127 13.0602 8.15369 13.1657 8.54669 13.3769C8.93952 13.5879 9.25202 13.871 9.48419 14.2262H13.8802L16.0284 5.5975H5.07844L5.13994 5.35356C5.21427 5.01385 5.3921 4.73641 5.67344 4.52124C5.95494 4.30591 6.28602 4.19824 6.66669 4.19824H17.9032L17.0359 7.69638H19.5379L22.3937 11.2484L21.4609 15.6255H19.8839C19.8839 16.3371 19.6164 16.9425 19.0812 17.4417C18.5459 17.9411 17.8969 18.1908 17.1342 18.1908C16.3714 18.1908 15.7223 17.9411 15.1869 17.4417C14.6518 16.9425 14.3842 16.3371 14.3842 15.6255H9.99944C9.99944 16.3371 9.73177 16.9425 9.19644 17.4417C8.66127 17.9411 8.01227 18.1908 7.24944 18.1908ZM15.9052 12.244H20.6437L20.7822 11.5837L18.7879 9.09563H16.6917L15.9052 12.244ZM15.8822 6.14647L16.0284 5.5975L13.8802 14.2262L14.0264 13.6773L15.8822 6.14647ZM1.08594 12.278L1.46094 10.8787H6.45144L6.07644 12.278H1.08594ZM3.08594 8.94498L3.46094 7.54572H9.45144L9.07644 8.94498H3.08594ZM7.24944 16.7915C7.59694 16.7915 7.89211 16.6782 8.13494 16.4515C8.37794 16.225 8.49944 15.9496 8.49944 15.6255C8.49944 15.3013 8.37794 15.026 8.13494 14.7995C7.89211 14.5728 7.59694 14.4594 7.24944 14.4594C6.90194 14.4594 6.60677 14.5728 6.36394 14.7995C6.12094 15.026 5.99944 15.3013 5.99944 15.6255C5.99944 15.9496 6.12094 16.225 6.36394 16.4515C6.60677 16.6782 6.90194 16.7915 7.24944 16.7915ZM17.1342 16.7915C17.4815 16.7915 17.7767 16.6782 18.0197 16.4515C18.2627 16.225 18.3842 15.9496 18.3842 15.6255C18.3842 15.3013 18.2627 15.026 18.0197 14.7995C17.7767 14.5728 17.4815 14.4594 17.1342 14.4594C16.7867 14.4594 16.4914 14.5728 16.2484 14.7995C16.0054 15.026 15.8839 15.3013 15.8839 15.6255C15.8839 15.9496 16.0054 16.225 16.2484 16.4515C16.4914 16.6782 16.7867 16.7915 17.1342 16.7915Z" fill="black" fill-opacity="0.2"/>
</g>
</svg>
