<svg width="20" height="20" viewBox="0 0 20 20" fill="none" xmlns="http://www.w3.org/2000/svg">
<path fill-rule="evenodd" clip-rule="evenodd" d="M3.8069 2.19945C8.59261 1.38802 11.3583 1.51373 16.1698 2.19659C17.9669 2.45088 19.6412 3.70945 19.6412 5.76088V7.42231C19.6411 7.56179 19.6003 7.69821 19.5236 7.81473C19.4469 7.93126 19.3378 8.02278 19.2098 8.07802C18.8253 8.24371 18.4978 8.51838 18.2678 8.86809C18.0377 9.21781 17.9151 9.62726 17.9151 10.0459C17.9151 10.4645 18.0377 10.8739 18.2678 11.2237C18.4978 11.5734 18.8253 11.848 19.2098 12.0137C19.3381 12.0691 19.4473 12.1608 19.524 12.2776C19.6007 12.3944 19.6414 12.5311 19.6412 12.6709V14.3323C19.6412 15.3037 19.2869 16.1494 18.6455 16.778C18.0126 17.398 17.1426 17.7694 16.1612 17.8966C11.3598 18.5194 8.6469 18.5252 3.83404 17.8966C1.90833 17.6466 0.35547 16.3652 0.35547 14.3323L0.35547 12.6694C0.355505 12.53 0.396378 12.3935 0.473045 12.277C0.549712 12.1605 0.658818 12.069 0.786898 12.0137C1.17133 11.848 1.49881 11.5734 1.7289 11.2237C1.95898 10.8739 2.0816 10.4645 2.0816 10.0459C2.0816 9.62726 1.95898 9.21781 1.7289 8.86809C1.49881 8.51838 1.17133 8.24371 0.786898 8.07802C0.658594 8.02269 0.549336 7.93094 0.472652 7.81414C0.395968 7.69733 0.355225 7.5606 0.35547 7.42088L0.35547 5.76231C0.35547 4.77659 0.73547 3.94516 1.38118 3.32945C2.01547 2.72659 2.87261 2.35659 3.8069 2.19945ZM8.8069 7.19088C8.81544 7.37986 8.7856 7.56861 8.71917 7.74574C8.65274 7.92286 8.5511 8.08469 8.42038 8.22144C8.28967 8.3582 8.1326 8.46704 7.95866 8.5414C7.78471 8.61577 7.5975 8.65411 7.40833 8.65411C7.21915 8.65411 7.03194 8.61577 6.858 8.5414C6.68405 8.46704 6.52698 8.3582 6.39627 8.22144C6.26556 8.08469 6.16392 7.92286 6.09749 7.74574C6.03106 7.56861 6.00121 7.37986 6.00976 7.19088C6.02137 6.8275 6.17388 6.48289 6.43503 6.22996C6.69618 5.97702 7.04548 5.83559 7.40904 5.83559C7.7726 5.83559 8.1219 5.97702 8.38305 6.22996C8.6442 6.48289 8.79529 6.8275 8.8069 7.19088ZM12.5898 14.3337C12.9611 14.3337 13.3172 14.1862 13.5797 13.9237C13.8423 13.6611 13.9898 13.305 13.9898 12.9337C13.9898 12.5624 13.8423 12.2063 13.5797 11.9438C13.3172 11.6812 12.9611 11.5337 12.5898 11.5337C12.2185 11.5337 11.8624 11.6812 11.5998 11.9438C11.3373 12.2063 11.1898 12.5624 11.1898 12.9337C11.1898 13.305 11.3373 13.6611 11.5998 13.9237C11.8624 14.1862 12.2185 14.3337 12.5898 14.3337ZM13.6755 7.33088C13.8242 7.14655 13.8936 6.9107 13.8684 6.67521C13.8432 6.43972 13.7255 6.22387 13.5412 6.07516C13.3569 5.92645 13.121 5.85706 12.8855 5.88224C12.65 5.90742 12.4342 6.02512 12.2855 6.20945C10.1126 8.90088 8.70976 10.2866 5.85833 12.6337C5.76471 12.7072 5.68673 12.7986 5.62895 12.9026C5.57117 13.0067 5.53477 13.1212 5.52189 13.2395C5.509 13.3578 5.51989 13.4775 5.55392 13.5915C5.58794 13.7055 5.64442 13.8116 5.72002 13.9035C5.79563 13.9953 5.88884 14.0712 5.99417 14.1265C6.09951 14.1819 6.21485 14.2156 6.33341 14.2258C6.45197 14.2359 6.57136 14.2223 6.68456 14.1856C6.79777 14.1489 6.9025 14.09 6.99261 14.0123C9.9269 11.598 11.4169 10.1266 13.674 7.32945" fill="#334EAC"/>
</svg>
