<svg width="12" height="12" viewBox="0 0 12 12" fill="none" xmlns="http://www.w3.org/2000/svg">
<g clip-path="url(#clip0_1173_1371)">
<path d="M2.16875 0.492188C1.41875 0.492188 0.667813 1.05469 0.667813 2.17969L2.16875 5.17969L3.66875 2.17969C3.66875 1.05469 2.91875 0.492188 2.16875 0.492188ZM8.78516 1.40625C8.62344 1.41305 8.46641 1.44375 8.33516 1.47187L8.42422 1.88438C8.55547 1.85508 8.69141 1.83656 8.80625 1.82812L8.78516 1.40625ZM2.16875 1.42969C2.58359 1.42969 2.91875 1.76555 2.91875 2.17969C2.91875 2.59453 2.58359 2.92969 2.16875 2.92969C1.75461 2.92969 1.41875 2.59453 1.41875 2.17969C1.41875 1.76555 1.75461 1.42969 2.16875 1.42969ZM9.25156 1.43438L9.18125 1.84922C9.29609 1.87336 9.41094 1.90359 9.51172 1.96406L9.71563 1.59375C9.57266 1.51758 9.41328 1.44914 9.25156 1.43438ZM7.90391 1.59141C7.76094 1.64719 7.61797 1.69711 7.49609 1.74609L7.6625 2.13281C7.79141 2.07797 7.92734 2.03016 8.04219 1.98984L7.90391 1.59141ZM10.1 1.90547L9.77891 2.17969C9.86328 2.27625 9.92891 2.39531 9.98047 2.49141L10.3578 2.30156C10.2781 2.14805 10.2078 2.0318 10.1 1.90547ZM7.10469 1.92656C6.96172 1.99945 6.84453 2.06438 6.71797 2.12813L6.92422 2.49844C7.04609 2.42812 7.17969 2.36016 7.2875 2.30625L7.10469 1.92656ZM6.34766 2.34609C6.22344 2.41875 6.10156 2.49141 5.98203 2.57109L6.21172 2.92266C6.32656 2.84766 6.44609 2.77734 6.56328 2.70703L6.34766 2.34609ZM10.5031 2.76562C10.3648 2.78906 10.2242 2.80547 10.0859 2.82188C10.0953 2.93906 10.0883 3.06562 10.0648 3.16406L10.475 3.26016C10.4984 3.09141 10.5195 2.91797 10.5031 2.76562ZM5.62578 2.80547C5.50859 2.88516 5.39375 2.96719 5.27656 3.04688L5.52031 3.39141C5.63281 3.30937 5.74766 3.23203 5.8625 3.15234L5.62578 2.80547ZM4.93203 3.3C4.81484 3.38438 4.69297 3.47812 4.59219 3.55547L4.84766 3.89062C4.97656 3.79688 5.06563 3.72656 5.18281 3.63984L4.93203 3.3ZM9.92422 3.4875C9.85391 3.59531 9.77188 3.70312 9.68985 3.78516L9.99688 4.07812C10.0977 3.95859 10.2055 3.83672 10.2805 3.71484L9.92422 3.4875ZM4.25703 3.81797C4.14219 3.90703 4.02734 3.99844 3.92656 4.08281L4.19375 4.40859C4.30391 4.31719 4.41641 4.22344 4.51953 4.14844L4.25703 3.81797ZM9.39922 4.05469C9.29141 4.14141 9.17891 4.22578 9.07578 4.29609L9.31719 4.64297C9.44141 4.55859 9.56328 4.46719 9.66875 4.38281L9.39922 4.05469ZM3.60078 4.35703C3.49063 4.44609 3.38516 4.53984 3.27734 4.63125L3.55156 4.95234C3.65703 4.86094 3.7625 4.76953 3.87031 4.68047L3.60078 4.35703ZM8.73125 4.52109C8.61172 4.59141 8.4875 4.66406 8.375 4.725L8.57656 5.09766C8.70313 5.02031 8.84609 4.95234 8.95156 4.88203L8.73125 4.52109ZM2.95625 4.91016C2.85078 5.00391 2.74766 5.09766 2.64219 5.19375L2.92578 5.50781C3.02891 5.41406 3.13438 5.32031 3.2375 5.22656L2.95625 4.91016ZM8.00703 4.91953C7.88281 4.98047 7.75859 5.04375 7.63438 5.10469L7.81484 5.48438C7.96016 5.41406 8.06797 5.35547 8.19922 5.29453L8.00703 4.91953ZM7.25703 5.28047C7.12813 5.33906 7.00391 5.39531 6.87266 5.44922L7.04375 5.83594C7.17266 5.77969 7.30156 5.72109 7.43047 5.6625L7.25703 5.28047ZM2.33281 5.48438C2.21328 5.58984 2.13008 5.67188 2.02109 5.77734L2.31875 6.08203C2.42891 5.97656 2.51797 5.88516 2.62109 5.79609L2.33281 5.48438ZM6.48828 5.62031C6.35938 5.67422 6.23047 5.73047 6.10156 5.78438L6.26563 6.17578C6.39688 6.12187 6.52578 6.06562 6.65469 6.00937L6.48828 5.62031ZM5.7125 5.94844C5.58359 6.00469 5.45469 6.06094 5.32344 6.1125L5.4875 6.50391C5.61641 6.45 5.74766 6.39375 5.87656 6.33984L5.7125 5.94844ZM10.0438 6.11719C9.29375 6.11719 8.54375 6.67969 8.54375 7.80469L10.0438 10.8047L11.5438 7.80469C11.5438 6.67969 10.7938 6.11719 10.0438 6.11719ZM4.93438 6.27656C4.80078 6.3375 4.66016 6.39375 4.54531 6.44297L4.71172 6.83203C4.85 6.77344 4.98125 6.71719 5.09844 6.66562L4.93438 6.27656ZM4.15625 6.60938C4.02969 6.66797 3.88203 6.73359 3.76953 6.78516L3.94297 7.16953C4.08125 7.10859 4.20313 7.04766 4.325 6.99609L4.15625 6.60938ZM3.38281 6.96094C3.25156 7.02422 3.11563 7.08984 2.99844 7.14844L3.18828 7.52578C3.31484 7.46016 3.44609 7.39922 3.56094 7.34297L3.38281 6.96094ZM10.0438 7.05469C10.4586 7.05469 10.7938 7.38984 10.7938 7.80469C10.7938 8.21953 10.4586 8.55469 10.0438 8.55469C9.62891 8.55469 9.29375 8.21953 9.29375 7.80469C9.29375 7.38984 9.62891 7.05469 10.0438 7.05469ZM2.61875 7.34297C2.49453 7.41094 2.37031 7.48125 2.24375 7.55391L2.45469 7.91953C2.57422 7.84922 2.69609 7.78359 2.81797 7.71797L2.61875 7.34297ZM1.87578 7.78125C1.7443 7.85625 1.61727 7.95703 1.50781 8.02969L1.76328 8.36719C1.87977 8.28281 2.00516 8.19609 2.10547 8.13516L1.87578 7.78125ZM1.175 8.31094C1.0625 8.41406 0.951641 8.53359 0.865625 8.63437L1.18672 8.90859C1.27695 8.79844 1.35547 8.71641 1.46094 8.62266L1.175 8.31094ZM6.27969 8.34141L6.31719 8.76094C6.43906 8.73984 6.56094 8.75391 6.68281 8.77266L6.75547 8.35781C6.60078 8.33438 6.43672 8.31797 6.27969 8.34141ZM5.40781 8.57578L5.56719 8.96719C5.68906 8.91328 5.81563 8.87109 5.94453 8.83125C5.9 8.69766 5.86719 8.56172 5.83203 8.42578C5.68438 8.46797 5.53672 8.52422 5.40781 8.57578ZM7.22422 8.55469L6.98516 8.90156C7.08359 8.97422 7.17969 9.05156 7.25703 9.14766L7.57578 8.87109C7.45625 8.74922 7.36484 8.63437 7.22422 8.55469ZM5.00938 8.76562C4.88047 8.83125 4.75625 8.90625 4.63203 8.97891L4.84531 9.34219C4.96719 9.27656 5.08672 9.19922 5.20625 9.13594L5.00938 8.76562ZM0.608047 9.02344C0.537266 9.17578 0.479844 9.33984 0.453125 9.48516L0.867969 9.55781C0.893281 9.42422 0.929609 9.32812 0.982813 9.21328C0.854141 9.15703 0.731328 9.08906 0.608047 9.02344ZM4.26641 9.20625C4.14688 9.28359 4.02969 9.36094 3.9125 9.44062L4.14688 9.79219C4.26406 9.71484 4.37891 9.63516 4.49609 9.55781L4.26641 9.20625ZM7.84531 9.23438L7.49141 9.46406C7.56641 9.57656 7.63906 9.69375 7.70703 9.81328L8.07266 9.60234C7.99063 9.47109 7.93203 9.35391 7.84531 9.23438ZM3.56328 9.67969C3.44609 9.75703 3.32891 9.83203 3.21406 9.91406L3.44844 10.2656C3.56094 10.1836 3.68047 10.1062 3.8 10.0266L3.56328 9.67969ZM0.872656 9.90234C0.736953 9.93047 0.600078 9.95391 0.463672 9.97969C0.488281 10.1437 0.554141 10.3031 0.613672 10.4297L0.994531 10.2469C0.943672 10.1297 0.895391 10.0078 0.872656 9.90234ZM8.28125 9.96797L7.91563 10.1789C7.98828 10.3055 8.07266 10.4414 8.14063 10.5492L8.49453 10.3219C8.41484 10.1977 8.34688 10.0805 8.28125 9.96797ZM2.86719 10.1437C2.75 10.2164 2.63516 10.2867 2.51328 10.3547L2.72188 10.7227C2.84609 10.65 2.97031 10.5773 3.08984 10.5L2.86719 10.1437ZM1.19609 10.5258L0.907813 10.8352C1.03813 10.9594 1.19891 11.0414 1.37422 11.0789L1.46797 10.6688C1.36391 10.6477 1.26664 10.5961 1.19609 10.5258ZM2.15703 10.5328C2.03961 10.5867 1.91773 10.6289 1.79141 10.6547L1.8875 11.0672C2.03797 11.0367 2.17953 10.9805 2.32109 10.9219L2.15703 10.5328ZM8.72656 10.6453L8.40078 10.9102C8.50156 11.0344 8.62578 11.1539 8.73359 11.2383L8.99375 10.9055C8.89063 10.8258 8.80156 10.7297 8.72656 10.6453ZM9.29141 11.0555L9.18594 11.4656C9.37109 11.5031 9.50938 11.5148 9.68281 11.4961L9.63125 11.0766C9.51641 11.0953 9.40391 11.0836 9.29141 11.0555Z" fill="#494949"/>
</g>
<defs>
<clipPath id="clip0_1173_1371">
<rect width="12" height="12" fill="white"/>
</clipPath>
</defs>
</svg>
