<svg width="36" height="36" viewBox="0 0 36 36" fill="none" xmlns="http://www.w3.org/2000/svg">
<rect width="36" height="36" rx="8" fill="#E1F7E6"/>
<path fill-rule="evenodd" clip-rule="evenodd" d="M18 28C23.5228 28 28 23.5228 28 18C28 12.4772 23.5228 8 18 8C12.4772 8 8 12.4772 8 18C8 23.5228 12.4772 28 18 28ZM22.592 15.4605C22.8463 15.1335 22.7874 14.6623 22.4605 14.408C22.1335 14.1537 21.6623 14.2126 21.408 14.5396L17.401 19.6914C17.3119 19.806 17.1443 19.8209 17.0364 19.7238L14.5017 17.4426C14.1938 17.1655 13.7196 17.1904 13.4425 17.4983C13.1654 17.8062 13.1904 18.2804 13.4983 18.5575L16.033 20.8387C16.7881 21.5183 17.9613 21.4143 18.585 20.6123L22.592 15.4605Z" fill="#12461F"/>
</svg>
