<svg width="13" height="10" viewBox="0 0 13 10" fill="none" xmlns="http://www.w3.org/2000/svg">
<path fill-rule="evenodd" clip-rule="evenodd" d="M11.0312 6.70026C11.8508 6.30634 12.485 5.59295 12.7943 4.71701C13.1036 3.84107 13.0627 2.87434 12.6806 2.02949C12.2985 1.18464 11.6064 0.530876 10.7567 0.212018C9.90692 -0.10684 8.96911 -0.0646734 8.14952 0.329243L1.96905 3.29918C1.14939 3.6931 0.515108 4.40653 0.205733 5.28252C-0.103642 6.15852 -0.0627653 7.12532 0.31937 7.97025C0.701505 8.81517 1.3936 9.46901 2.24339 9.78792C3.09319 10.1068 4.03108 10.0647 4.85073 9.67078L11.0312 6.70026ZM7.9387 6.89357L10.551 5.63823C11.0913 5.37173 11.5077 4.8962 11.7097 4.31498C11.9117 3.73376 11.8831 3.09383 11.6299 2.53429C11.3768 1.97474 10.9196 1.54079 10.3579 1.32676C9.79606 1.11273 9.17502 1.13591 8.62971 1.39127L6.01739 2.64662L7.9387 6.89357Z" fill="#17234D"/>
</svg>
