<svg width="24" height="24" viewBox="0 0 24 24" fill="none" xmlns="http://www.w3.org/2000/svg">
<path fill-rule="evenodd" clip-rule="evenodd" d="M21.4559 5.41583C21.5509 5.56004 21.5932 5.73261 21.5757 5.90442C21.5582 6.07622 21.482 6.23673 21.3599 6.35883L12.1669 15.5508C12.0728 15.6448 11.9555 15.7121 11.8269 15.7458L7.99787 16.7458C7.8713 16.7788 7.7383 16.7782 7.61206 16.7439C7.48583 16.7096 7.37076 16.6429 7.27826 16.5504C7.18577 16.4579 7.11908 16.3429 7.0848 16.2166C7.05053 16.0904 7.04986 15.9574 7.08287 15.8308L8.08287 12.0028C8.11277 11.8882 8.16776 11.7816 8.24387 11.6908L17.4709 2.46983C17.6115 2.32938 17.8021 2.25049 18.0009 2.25049C18.1996 2.25049 18.3902 2.32938 18.5309 2.46983L21.3599 5.29783C21.3948 5.33467 21.4269 5.37411 21.4559 5.41583ZM19.7689 5.82783L18.0009 4.06083L9.48287 12.5788L8.85787 14.9718L11.2509 14.3468L19.7689 5.82783Z" fill="#334EAC"/>
<path d="M19.641 17.1601C19.9143 14.824 20.0016 12.47 19.902 10.1201C19.8997 10.0647 19.9088 10.0094 19.929 9.95778C19.9491 9.90614 19.9798 9.85925 20.019 9.82008L21.003 8.83608C21.0299 8.80904 21.064 8.79033 21.1013 8.78222C21.1385 8.77411 21.1774 8.77693 21.2131 8.79034C21.2488 8.80375 21.2798 8.82719 21.3025 8.85783C21.3252 8.88847 21.3386 8.92502 21.341 8.96308C21.5257 11.7543 21.4554 14.5566 21.131 17.3351C20.895 19.3571 19.271 20.9421 17.258 21.1671C13.7633 21.5538 10.2367 21.5538 6.74201 21.1671C4.73001 20.9421 3.10501 19.3571 2.86901 17.3351C2.45512 13.7905 2.45512 10.2097 2.86901 6.66508C3.10501 4.64308 4.72901 3.05808 6.74201 2.83308C9.39446 2.54012 12.0667 2.46888 14.731 2.62008C14.7691 2.62281 14.8057 2.63642 14.8363 2.65929C14.867 2.68215 14.8904 2.71332 14.9039 2.7491C14.9173 2.78487 14.9203 2.82376 14.9123 2.86115C14.9044 2.89854 14.8859 2.93287 14.859 2.96008L13.866 3.95208C13.8272 3.99092 13.7808 4.02136 13.7297 4.04149C13.6786 4.06162 13.6239 4.07101 13.569 4.06908C11.3458 3.99293 9.11993 4.07815 6.90901 4.32408C6.26295 4.39558 5.65986 4.6828 5.19717 5.13933C4.73447 5.59586 4.43919 6.19504 4.35901 6.84008C3.95787 10.2684 3.95787 13.7318 4.35901 17.1601C4.43919 17.8051 4.73447 18.4043 5.19717 18.8608C5.65986 19.3174 6.26295 19.6046 6.90901 19.6761C10.264 20.0511 13.736 20.0511 17.092 19.6761C17.7381 19.6046 18.3412 19.3174 18.8039 18.8608C19.2666 18.4043 19.5608 17.8051 19.641 17.1601Z" fill="#334EAC"/>
</svg>
