<svg width="18" height="18" viewBox="0 0 18 18" fill="none" xmlns="http://www.w3.org/2000/svg">
<g clip-path="url(#clip0_4141_1983)">
<path d="M14.9618 4.15202L12.3488 1.53752C11.8622 1.04862 11.2836 0.661015 10.6464 0.397112C10.0092 0.133208 9.32596 -0.00175791 8.63625 1.72865e-05H5.25C4.2558 0.00120818 3.30267 0.396679 2.59966 1.09968C1.89666 1.80269 1.50119 2.75582 1.5 3.75002V14.25C1.50119 15.2442 1.89666 16.1973 2.59966 16.9004C3.30267 17.6034 4.2558 17.9988 5.25 18H12.75C13.7442 17.9988 14.6973 17.6034 15.4003 16.9004C16.1033 16.1973 16.4988 15.2442 16.5 14.25V7.86377C16.5019 7.17408 16.3669 6.49089 16.1028 5.85375C15.8388 5.21661 15.4509 4.6382 14.9618 4.15202ZM13.9012 5.21252C14.1303 5.44813 14.3272 5.71291 14.487 6.00002H11.25C11.0511 6.00002 10.8603 5.921 10.7197 5.78035C10.579 5.63969 10.5 5.44893 10.5 5.25002V2.01302C10.7872 2.17271 11.0522 2.36939 11.2882 2.59802L13.9012 5.21252ZM15 14.25C15 14.8468 14.7629 15.4191 14.341 15.841C13.919 16.263 13.3467 16.5 12.75 16.5H5.25C4.65326 16.5 4.08097 16.263 3.65901 15.841C3.23705 15.4191 3 14.8468 3 14.25V3.75002C3 3.15328 3.23705 2.58098 3.65901 2.15903C4.08097 1.73707 4.65326 1.50002 5.25 1.50002H8.63625C8.75925 1.50002 8.8785 1.52402 9 1.53527V5.25002C9 5.84675 9.23705 6.41905 9.65901 6.84101C10.081 7.26296 10.6533 7.50002 11.25 7.50002H14.9647C14.976 7.62152 15 7.74002 15 7.86377V14.25Z" fill="#334EAC"/>
</g>
<defs>
<clipPath id="clip0_4141_1983">
<rect width="18" height="18" fill="white"/>
</clipPath>
</defs>
</svg>
