<svg width="18" height="18" viewBox="0 0 18 18" fill="none" xmlns="http://www.w3.org/2000/svg">
<path opacity="0.5" d="M0 9.1836C0 7.1235 0 6.0939 0.468 5.2407C0.9342 4.3866 1.7883 3.8574 3.4956 2.7972L5.2956 1.6803C7.1001 0.5598 8.0028 0 9 0C9.9972 0 10.899 0.5598 12.7044 1.6803L14.5044 2.7972C16.2117 3.8574 17.0658 4.3866 17.5329 5.2407C18 6.0948 18 7.1235 18 9.1827V10.5525C18 14.0625 18 15.8184 16.9452 16.9092C15.8904 18 14.1939 18 10.8 18H7.2C3.8061 18 2.1087 18 1.0548 16.9092C0.000899935 15.8184 0 14.0634 0 10.5525V9.1836Z" fill="black"/>
<path d="M8.32422 14.4004C8.32422 14.5794 8.39533 14.7511 8.52192 14.8777C8.64851 15.0043 8.8202 15.0754 8.99922 15.0754C9.17824 15.0754 9.34993 15.0043 9.47652 14.8777C9.6031 14.7511 9.67422 14.5794 9.67422 14.4004V11.7004C9.67422 11.5214 9.6031 11.3497 9.47652 11.2231C9.34993 11.0965 9.17824 11.0254 8.99922 11.0254C8.8202 11.0254 8.64851 11.0965 8.52192 11.2231C8.39533 11.3497 8.32422 11.5214 8.32422 11.7004V14.4004Z" fill="black"/>
</svg>
