<svg width="11" height="18" viewBox="0 0 11 18" fill="none" xmlns="http://www.w3.org/2000/svg">
<path d="M0.9375 4.68805C0.9375 4.68805 1.005 3.14118 2.50969 1.90086C3.40312 1.16446 4.47609 0.951175 5.4375 0.93805C6.31547 0.927269 7.10016 1.07586 7.56938 1.30461C8.37141 1.69743 9.9375 2.65367 9.9375 4.68805C9.9375 6.82883 8.56969 7.79914 7.01484 8.86836C5.46 9.93758 5.0625 10.9862 5.0625 12.1881" stroke="#334EAC" stroke-width="1.875" stroke-miterlimit="10" stroke-linecap="round"/>
<path d="M5.0625 17.25C5.89093 17.25 6.5625 16.5784 6.5625 15.75C6.5625 14.9216 5.89093 14.25 5.0625 14.25C4.23407 14.25 3.5625 14.9216 3.5625 15.75C3.5625 16.5784 4.23407 17.25 5.0625 17.25Z" fill="#334EAC"/>
</svg>
