<svg width="20" height="20" viewBox="0 0 20 20" fill="none" xmlns="http://www.w3.org/2000/svg">
<path d="M5.5987 13.8667C5.81087 13.8048 6.03894 13.8297 6.23272 13.936C6.42651 14.0423 6.57015 14.2212 6.63203 14.4333C6.69392 14.6455 6.66898 14.8736 6.56271 15.0674C6.45644 15.2611 6.27754 15.4048 6.06536 15.4667C5.6487 15.5883 5.3487 15.7167 5.1562 15.8333C5.35453 15.9525 5.66786 16.0858 6.10286 16.21C7.06536 16.485 8.44286 16.6667 9.9987 16.6667C11.5545 16.6667 12.932 16.485 13.8945 16.21C14.3304 16.0858 14.6429 15.9525 14.8412 15.8333C14.6495 15.7167 14.3495 15.5883 13.9329 15.4667C13.724 15.4021 13.5489 15.258 13.4453 15.0655C13.3418 14.873 13.3179 14.6475 13.3791 14.4376C13.4402 14.2277 13.5813 14.0503 13.772 13.9435C13.9628 13.8367 14.1878 13.8091 14.3987 13.8667C14.9554 14.0292 15.4654 14.2375 15.857 14.505C16.2195 14.7542 16.6654 15.1883 16.6654 15.8333C16.6654 16.4858 16.2087 16.9233 15.8404 17.1725C15.442 17.4408 14.9212 17.65 14.352 17.8125C13.2037 18.1417 11.6654 18.3333 9.9987 18.3333C8.33203 18.3333 6.7937 18.1417 5.64536 17.8125C5.0762 17.65 4.55536 17.4408 4.15703 17.1725C3.7887 16.9225 3.33203 16.4858 3.33203 15.8333C3.33203 15.1883 3.77786 14.7542 4.14036 14.505C4.53203 14.2375 5.04203 14.0292 5.5987 13.8667ZM9.9987 6.25C8.71536 6.25 7.9137 7.63917 8.55536 8.75C8.85286 9.26583 9.40286 9.58333 9.9987 9.58333C11.282 9.58333 12.0837 8.19417 11.442 7.08333C11.2958 6.82997 11.0854 6.61958 10.832 6.4733C10.5786 6.32702 10.2913 6.25001 9.9987 6.25Z" fill="#494949"/>
<path opacity="0.3" d="M10 1.6665C11.6576 1.6665 13.2473 2.32498 14.4194 3.49709C15.5915 4.66919 16.25 6.2589 16.25 7.9165C16.25 10.0565 15.0833 11.7965 13.875 13.0332C13.3947 13.5198 12.8785 13.9697 12.3308 14.379C11.8358 14.7507 10.7042 15.4473 10.7042 15.4473C10.4895 15.5693 10.2469 15.6335 10 15.6335C9.75312 15.6335 9.51047 15.5693 9.29583 15.4473C8.73421 15.1217 8.19115 14.765 7.66917 14.379C7.1215 13.9697 6.60533 13.5198 6.125 13.0332C4.91667 11.7965 3.75 10.0565 3.75 7.9165C3.75 6.2589 4.40848 4.66919 5.58058 3.49709C6.75268 2.32498 8.3424 1.6665 10 1.6665Z" fill="#494949"/>
</svg>
