<svg width="60" height="60" viewBox="0 0 60 60" fill="none" xmlns="http://www.w3.org/2000/svg">
<rect x="-0.5" y="0.5" width="59" height="59" rx="29.5" transform="matrix(-1 0 0 1 59 0)" fill="white"/>
<rect x="-0.5" y="0.5" width="59" height="59" rx="29.5" transform="matrix(-1 0 0 1 59 0)" stroke="#C0C8E5"/>
<path d="M34.5 30C34.5 29.6022 34.658 29.2206 34.9393 28.9393C35.2206 28.658 35.6022 28.5 36 28.5C36.3978 28.5 36.7794 28.658 37.0607 28.9393C37.342 29.2206 37.5 29.6022 37.5 30C37.5 30.3978 37.342 30.7794 37.0607 31.0607C36.7794 31.342 36.3978 31.5 36 31.5C35.6022 31.5 35.2206 31.342 34.9393 31.0607C34.658 30.7794 34.5 30.3978 34.5 30ZM28.5 30C28.5 29.6022 28.658 29.2206 28.9393 28.9393C29.2206 28.658 29.6022 28.5 30 28.5C30.3978 28.5 30.7794 28.658 31.0607 28.9393C31.342 29.2206 31.5 29.6022 31.5 30C31.5 30.3978 31.342 30.7794 31.0607 31.0607C30.7794 31.342 30.3978 31.5 30 31.5C29.6022 31.5 29.2206 31.342 28.9393 31.0607C28.658 30.7794 28.5 30.3978 28.5 30ZM22.5 30C22.5 29.6022 22.658 29.2206 22.9393 28.9393C23.2206 28.658 23.6022 28.5 24 28.5C24.3978 28.5 24.7794 28.658 25.0607 28.9393C25.342 29.2206 25.5 29.6022 25.5 30C25.5 30.3978 25.342 30.7794 25.0607 31.0607C24.7794 31.342 24.3978 31.5 24 31.5C23.6022 31.5 23.2206 31.342 22.9393 31.0607C22.658 30.7794 22.5 30.3978 22.5 30Z" fill="#334EAC"/>
</svg>
