<svg width="83" height="83" viewBox="0 0 83 83" fill="none" xmlns="http://www.w3.org/2000/svg">
<rect x="41.5745" width="57" height="60" rx="10" transform="rotate(43.8608 41.5745 0)" fill="white"/>
<g clip-path="url(#clip0_1269_3735)">
<path d="M35.4961 52.9918C35.3648 52.9831 35.2364 52.9487 35.1185 52.8904C35.0005 52.832 34.8952 52.751 34.8086 52.6519C34.7217 52.5525 34.6554 52.4369 34.6134 52.3117C34.5715 52.1865 34.5547 52.0543 34.5641 51.9226C34.5735 51.791 34.6089 51.6624 34.6682 51.5445C34.7276 51.4266 34.8096 51.3216 34.9098 51.2355L43.6412 43.6685C44.2417 43.1475 44.6107 42.4094 44.6674 41.6164C44.724 40.8234 44.4636 40.0404 43.9433 39.4393L36.3763 30.7079C36.2019 30.5066 36.1146 30.2443 36.1336 29.9787C36.1525 29.7131 36.2763 29.4659 36.4775 29.2915C36.6788 29.1171 36.941 29.0297 37.2067 29.0487C37.4723 29.0677 37.7195 29.1914 37.8939 29.3927L45.4609 38.1241C45.8923 38.6205 46.2214 39.1972 46.4296 39.8211C46.6377 40.445 46.7207 41.1038 46.6739 41.7598C46.627 42.4158 46.4512 43.0561 46.1565 43.644C45.8617 44.232 45.4539 44.756 44.9564 45.1861L36.225 52.7531C36.1251 52.8389 36.0094 52.9041 35.8843 52.9451C35.7592 52.986 35.6273 53.0019 35.4961 52.9918Z" fill="#334EAC"/>
</g>
<defs>
<clipPath id="clip0_1269_3735">
<rect width="24" height="24" fill="white" transform="translate(30.223 28.554) rotate(4.08646)"/>
</clipPath>
</defs>
</svg>
