<svg width="48" height="58" viewBox="0 0 48 58" fill="none" xmlns="http://www.w3.org/2000/svg">
<path d="M18.6933 52.0267C18.6933 54.96 21.0667 57.3333 24 57.3333C26.9333 57.3333 29.3067 54.96 29.3067 52.0267H18.6933ZM24 12C31.36 12 37.3333 17.9733 37.3333 25.3333V44H10.6667V25.3333C10.6667 17.9733 16.64 12 24 12ZM24 0C21.7867 0 20 1.78667 20 4V7.12C11.6267 8.93333 5.33333 16.4 5.33333 25.3333V41.3333L0 46.6667V49.3333H48V46.6667L42.6667 41.3333V25.3333C42.6667 16.4 36.3733 8.93333 28 7.12V4C28 1.78667 26.2133 0 24 0ZM21.3333 17.3333H26.6667V28H21.3333V17.3333ZM21.3333 33.3333H26.6667V38.6667H21.3333V33.3333Z" fill="#334EAC"/>
</svg>
