<svg width="15" height="15" viewBox="0 0 15 15" fill="none" xmlns="http://www.w3.org/2000/svg">
<path fill-rule="evenodd" clip-rule="evenodd" d="M3.33333 4.16667C3.33333 3.70643 3.70643 3.33333 4.16667 3.33333H4.175C4.63524 3.33333 5.00833 3.70643 5.00833 4.16667C5.00833 4.6269 4.63524 5 4.175 5H4.16667C3.70643 5 3.33333 4.6269 3.33333 4.16667ZM7.5 6.94156e-10H3.33333C1.49238 6.94156e-10 0 1.49238 0 3.33333V7.5C0 7.92654 0.162719 8.35307 0.488155 8.67851L6.32149 14.5118C6.97236 15.1627 8.02764 15.1627 8.67851 14.5118L14.5119 8.67851C15.1628 8.02764 15.1628 6.97236 14.5119 6.32149L8.67851 0.488155C8.35306 0.162706 7.92655 -1.22718e-05 7.5 6.94156e-10ZM7.5 1.66667H3.33333C2.41286 1.66667 1.66667 2.41286 1.66667 3.33333V7.5L8.67851 14.5118L7.5 13.3333L13.3334 7.5L7.5 1.66667Z" fill="#334EAC"/>
</svg>
