<svg width="20" height="20" viewBox="0 0 20 20" fill="none" xmlns="http://www.w3.org/2000/svg">
<path fill-rule="evenodd" clip-rule="evenodd" d="M15.8167 7.71124C15.5016 6.91292 15.026 6.18782 14.4192 5.58089C13.8124 4.97395 13.0874 4.49813 12.2892 4.18291C12.1007 4.39687 11.9502 4.64151 11.8442 4.90624C12.5905 5.17755 13.2682 5.60915 13.8297 6.17066C14.3913 6.73217 14.8229 7.40993 15.0942 8.15624C15.3589 8.05024 15.6035 7.89974 15.8175 7.71124M10.1908 4.58624L10 4.58374C8.9206 4.58374 7.8658 4.90623 6.97094 5.50985C6.07609 6.11347 5.38198 6.97068 4.97767 7.97151C4.57336 8.97234 4.47729 10.0711 4.70178 11.1269C4.92627 12.1828 5.46109 13.1474 6.23762 13.8972C7.01415 14.6469 7.99697 15.1476 9.06 15.3349C10.123 15.5222 11.2178 15.3876 12.2038 14.9485C13.1899 14.5093 14.0222 13.7856 14.594 12.8701C15.1659 11.9546 15.4512 10.8892 15.4133 9.81041C15.7 9.72041 15.9711 9.60235 16.2267 9.45624C16.2417 9.63568 16.2494 9.81707 16.25 10.0004C16.2499 11.2597 15.8694 12.4897 15.1583 13.529C14.4473 14.5684 13.4388 15.3687 12.2651 15.8251C11.0914 16.2815 9.80717 16.3727 8.58074 16.0867C7.35431 15.8008 6.24288 15.151 5.39207 14.2225C4.54127 13.294 3.99079 12.1302 3.81277 10.8835C3.63475 9.63685 3.83748 8.36547 4.39441 7.23599C4.95134 6.1065 5.83648 5.1716 6.93385 4.5538C8.03122 3.93599 9.28963 3.66409 10.5442 3.77374C10.3975 4.03147 10.2788 4.30413 10.19 4.58707" fill="#494949"/>
<path d="M14.168 8.33301C15.5487 8.33301 16.668 7.21372 16.668 5.83301C16.668 4.4523 15.5487 3.33301 14.168 3.33301C12.7873 3.33301 11.668 4.4523 11.668 5.83301C11.668 7.21372 12.7873 8.33301 14.168 8.33301Z" fill="#494949"/>
</svg>
