<svg width="16" height="23" viewBox="0 0 16 23" fill="none" xmlns="http://www.w3.org/2000/svg">
<path d="M4.73379 5.16163C4.7011 4.23827 4.72748 3.26043 5.05267 2.49651C5.22415 2.09505 5.47134 1.77044 5.82922 1.54046C6.18882 1.30991 6.70499 1.14703 7.45974 1.14703C8.30569 1.14703 9.01055 1.45443 9.51525 1.77445C9.76588 1.93389 9.96145 2.09275 10.0928 2.21032C10.1541 2.26553 10.2134 2.32292 10.2706 2.38238L10.2763 2.38811V2.38869C10.3263 2.44502 10.3869 2.49096 10.4547 2.52387C10.5225 2.55678 10.596 2.57602 10.6712 2.58049C10.7464 2.58496 10.8218 2.57458 10.893 2.54994C10.9642 2.5253 11.0298 2.48687 11.0861 2.43686C11.1425 2.38685 11.1884 2.32624 11.2213 2.25848C11.2542 2.19072 11.2735 2.11714 11.2779 2.04194C11.2824 1.96674 11.272 1.8914 11.2474 1.82022C11.2227 1.74903 11.1843 1.6834 11.1343 1.62706L10.7128 1.99984C11.1343 1.62706 11.1332 1.62591 11.1332 1.62591L11.1309 1.62305L11.1251 1.61731C11.1026 1.59177 11.0792 1.56691 11.0552 1.54275C10.9914 1.4787 10.9258 1.41654 10.8584 1.35636C10.6307 1.15377 10.3871 0.969664 10.1301 0.805788C9.50493 0.410636 8.58729 0 7.45974 0C6.53866 0 5.7948 0.200156 5.20981 0.575235C4.6231 0.952034 4.24056 1.47565 3.99738 2.04687C3.57412 3.04077 3.55347 4.22508 3.58559 5.16163H0.544198C0.227039 5.16163 -0.032767 5.41971 0.00336498 5.734C0.356082 8.81951 3.53627 11.2644 7.49243 11.4577V16.0584H8.63948V11.4508C9.59415 11.3938 10.5353 11.1967 11.4325 10.8658C11.4383 10.9316 11.4411 10.9998 11.4411 11.0705C11.4411 11.5076 11.0838 12.0306 10.3509 12.4848C9.97506 12.7144 9.57018 12.8927 9.14705 13.0148V14.1996C9.78537 14.052 10.3956 13.8022 10.9542 13.4598C11.799 12.9385 12.5882 12.1143 12.5882 11.0711C12.5882 10.836 12.5664 10.6037 12.5176 10.3783C14.4487 9.3437 15.7753 7.66445 15.9966 5.73457C16.0328 5.42028 15.7724 5.1622 15.4558 5.1622L4.73379 5.16163Z" fill="#334EAC"/>
<path d="M11.4434 20.0734C11.4434 20.7415 11.2369 21.3282 10.859 21.7939H12.5904V22.941H3.41406V21.7939H7.49468V19.4999H8.64173V21.7446C9.10169 21.6695 9.46531 21.5129 9.72684 21.307C10.0853 21.026 10.2963 20.6211 10.2963 20.0734C10.2963 19.5257 10.0853 19.1213 9.72684 18.8398C9.35404 18.5461 8.77364 18.3523 8.00225 18.3523C7.13222 18.3523 6.16698 18.284 5.40362 17.9451C5.01133 17.7707 4.64943 17.5149 4.38676 17.1404C4.12179 16.7619 3.98759 16.3025 3.98759 15.772C3.98759 15.2415 4.12179 14.7821 4.38676 14.4036C4.64943 14.0291 5.0119 13.7733 5.40362 13.599C5.83949 13.4051 6.34247 13.2996 6.8552 13.2451V14.3996C6.47782 14.4472 6.14289 14.5258 5.86932 14.6474C5.61639 14.7598 5.44089 14.8986 5.32676 15.0614C5.2155 15.2203 5.13463 15.4423 5.13463 15.772C5.13463 16.1018 5.21493 16.3237 5.32676 16.4826C5.44089 16.6455 5.61639 16.7843 5.86932 16.8967C6.39696 17.1313 7.15171 17.2058 8.00225 17.2058C8.95086 17.2058 9.80541 17.4427 10.4357 17.9376C11.0809 18.4446 11.4434 19.1873 11.4434 20.0734Z" fill="#334EAC"/>
</svg>
