<svg width="18" height="18" viewBox="0 0 18 18" fill="none" xmlns="http://www.w3.org/2000/svg">
<path fill-rule="evenodd" clip-rule="evenodd" d="M8.99844 10.3504C9.95322 10.3504 10.8689 9.97111 11.544 9.29598C12.2192 8.62085 12.5984 7.70517 12.5984 6.75039C12.5984 5.79561 12.2192 4.87994 11.544 4.20481C10.8689 3.52968 9.95322 3.15039 8.99844 3.15039C8.04366 3.15039 7.12798 3.52968 6.45285 4.20481C5.77772 4.87994 5.39844 5.79561 5.39844 6.75039C5.39844 7.70517 5.77772 8.62085 6.45285 9.29598C7.12798 9.97111 8.04366 10.3504 8.99844 10.3504ZM8.99844 9.45039C9.35301 9.45039 9.70411 9.38056 10.0317 9.24487C10.3593 9.10918 10.6569 8.9103 10.9076 8.65958C11.1583 8.40886 11.3572 8.11122 11.4929 7.78364C11.6286 7.45606 11.6984 7.10496 11.6984 6.75039C11.6984 6.39582 11.6286 6.04473 11.4929 5.71715C11.3572 5.38957 11.1583 5.09192 10.9076 4.8412C10.6569 4.59049 10.3593 4.3916 10.0317 4.25592C9.70411 4.12023 9.35301 4.05039 8.99844 4.05039C8.28235 4.05039 7.5956 4.33485 7.08925 4.8412C6.5829 5.34755 6.29844 6.03431 6.29844 6.75039C6.29844 7.46648 6.5829 8.15323 7.08925 8.65958C7.5956 9.16593 8.28235 9.45039 8.99844 9.45039Z" fill="black"/>
<path fill-rule="evenodd" clip-rule="evenodd" d="M18 9C18 13.9707 13.9707 18 9 18C4.0293 18 0 13.9707 0 9C0 4.0293 4.0293 0 9 0C13.9707 0 18 4.0293 18 9ZM13.3335 15.8445C12.0381 16.6673 10.5346 17.1028 9 17.1C7.42875 17.1029 5.89098 16.6461 4.57605 15.786C4.46805 15.651 4.35855 15.5115 4.24755 15.3675C4.11881 15.1989 4.04936 14.9924 4.05 14.7803C4.05 14.2956 4.3983 13.8892 4.86405 13.8213C7.9443 13.3713 10.0652 13.41 13.1495 13.837C13.3727 13.8697 13.5766 13.9819 13.7237 14.153C13.8708 14.324 13.9512 14.5425 13.95 14.7681C13.95 14.9841 13.8757 15.1938 13.7416 15.3576C13.6033 15.5259 13.4673 15.6882 13.3335 15.8445ZM14.8433 14.6097C14.7712 13.7673 14.1318 13.0644 13.2727 12.9456C10.1155 12.5087 7.90875 12.4668 4.734 12.9307C3.87 13.0568 3.23325 13.7659 3.15765 14.6106C1.70655 13.1036 0.89714 11.0921 0.9 9C0.9 4.52655 4.52655 0.9 9 0.9C13.4734 0.9 17.1 4.52655 17.1 9C17.1029 11.0916 16.2938 13.1028 14.8433 14.6097Z" fill="black"/>
</svg>
