<svg width="20" height="19" viewBox="0 0 20 19" fill="none" xmlns="http://www.w3.org/2000/svg">
<path fill-rule="evenodd" clip-rule="evenodd" d="M8.16031 1.3218C8.73942 -0.440602 11.2606 -0.440596 11.8397 1.3218L13.3087 5.79244L18.062 5.79262C19.9358 5.79269 20.7149 8.16398 19.199 9.25327L15.3536 12.0165L16.8223 16.4872C17.4012 18.2497 15.3616 19.7152 13.8456 18.626L10 15.8631L6.15441 18.626C4.63843 19.7152 2.59876 18.2497 3.17773 16.4872L4.64641 12.0165L0.801031 9.25327C-0.714875 8.16398 0.0642127 5.79269 1.93802 5.79262L6.6913 5.79244L8.16031 1.3218ZM10 1.91302L8.53099 6.38367C8.27201 7.17182 7.52934 7.70543 6.69137 7.70547L1.9381 7.70564L5.78347 10.4688C6.46139 10.956 6.74506 11.8194 6.48614 12.6075L5.01747 17.0783L8.86305 14.3154C9.54101 13.8283 10.459 13.8283 11.1369 14.3154L14.9825 17.0783L13.5139 12.6075C13.2549 11.8194 13.5386 10.956 14.2165 10.4688L18.0619 7.70564L13.3086 7.70547C12.4707 7.70543 11.728 7.17182 11.469 6.38367L10 1.91302Z" fill="#334EAC"/>
</svg>
