<svg width="24" height="27" viewBox="0 0 24 27" fill="none" xmlns="http://www.w3.org/2000/svg">
<path fill-rule="evenodd" clip-rule="evenodd" d="M11.9994 27C13.5326 27 15.0509 26.6971 16.4674 26.1086C17.884 25.52 19.1711 24.6574 20.2553 23.57C21.3395 22.4825 22.1995 21.1916 22.7863 19.7707C23.373 18.3499 23.675 16.8271 23.675 15.2892C23.675 13.7513 23.373 12.2285 22.7863 10.8077C22.1995 9.38686 21.3395 8.09587 20.2553 7.00842C19.1711 5.92098 17.884 5.05836 16.4674 4.46984C15.0509 3.88132 13.5326 3.57841 11.9994 3.57841C8.90277 3.57841 5.93302 4.81222 3.74341 7.00842C1.55379 9.20462 0.323681 12.1833 0.323681 15.2892C0.323681 18.3951 1.55379 21.3738 3.74341 23.57C5.93302 25.7662 8.90277 27 11.9994 27ZM11.9994 10.4097C12.2574 10.4097 12.5049 10.5125 12.6873 10.6955C12.8698 10.8786 12.9723 11.1268 12.9723 11.3856V14.3133H15.8912C16.1493 14.3133 16.3968 14.4161 16.5792 14.5991C16.7617 14.7822 16.8642 15.0304 16.8642 15.2892C16.8642 15.548 16.7617 15.7963 16.5792 15.9793C16.3968 16.1623 16.1493 16.2651 15.8912 16.2651H12.9723V19.1928C12.9723 19.4516 12.8698 19.6999 12.6873 19.8829C12.5049 20.0659 12.2574 20.1687 11.9994 20.1687C11.7413 20.1687 11.4938 20.0659 11.3114 19.8829C11.1289 19.6999 11.0264 19.4516 11.0264 19.1928V16.2651H8.10746C7.84941 16.2651 7.60193 16.1623 7.41947 15.9793C7.237 15.7963 7.13449 15.548 7.13449 15.2892C7.13449 15.0304 7.237 14.7822 7.41947 14.5991C7.60193 14.4161 7.84941 14.3133 8.10746 14.3133H11.0264V11.3856C11.0264 11.1268 11.1289 10.8786 11.3114 10.6955C11.4938 10.5125 11.7413 10.4097 11.9994 10.4097ZM6.9866 0.459436C7.12322 0.678786 7.16744 0.943561 7.10954 1.19559C7.05165 1.44762 6.89638 1.6663 6.67784 1.80357L1.48865 5.05657C1.26983 5.19375 1.00564 5.23812 0.754195 5.17992C0.502755 5.12172 0.284663 4.96572 0.147897 4.74624C0.0111317 4.52675 -0.0331047 4.26177 0.0249201 4.00957C0.0829448 3.75737 0.238477 3.53863 0.457302 3.40145L5.64649 0.148449C5.86534 0.0115366 6.12943 -0.0326145 6.38073 0.0257005C6.63202 0.0840156 6.84994 0.240024 6.9866 0.459436ZM17.0121 0.459436C17.0798 0.350618 17.1682 0.256244 17.2722 0.181712C17.3763 0.107181 17.494 0.0539516 17.6185 0.0250692C17.7431 -0.00381317 17.8722 -0.00778267 17.9983 0.0133878C18.1244 0.0345583 18.2451 0.0804535 18.3535 0.148449L23.5427 3.40145C23.7615 3.53863 23.9171 3.75737 23.9751 4.00957C24.0331 4.26177 23.9889 4.52675 23.8521 4.74624C23.7844 4.85491 23.696 4.94915 23.592 5.02356C23.4879 5.09797 23.3703 5.1511 23.2458 5.17992C22.9944 5.23812 22.7302 5.19375 22.5113 5.05657L17.3222 1.80357C17.1034 1.66651 16.9479 1.44793 16.8897 1.19588C16.8316 0.943833 16.8756 0.678944 17.0121 0.459436Z" fill="#7D7D7D"/>
</svg>
