<svg width="10" height="20" viewBox="0 0 10 20" fill="none" xmlns="http://www.w3.org/2000/svg">
<path d="M6.75465 6.66672H3.24632C3.10781 6.66692 2.97208 6.62789 2.85484 6.55415C2.73759 6.48041 2.64363 6.37498 2.58382 6.25005C2.51381 6.10182 2.48684 5.93691 2.50599 5.77411C2.52515 5.6113 2.58965 5.45715 2.69215 5.32922L4.44632 3.20422C4.51516 3.12479 4.60027 3.06109 4.69588 3.01743C4.7915 2.97377 4.89538 2.95117 5.00049 2.95117C5.1056 2.95117 5.20948 2.97377 5.30509 3.01743C5.4007 3.06109 5.48581 3.12479 5.55465 3.20422L7.30882 5.32922C7.41132 5.45715 7.47583 5.6113 7.49498 5.77411C7.51413 5.93691 7.48717 6.10182 7.41715 6.25005C7.35734 6.37498 7.26338 6.48041 7.14613 6.55415C7.02889 6.62789 6.89316 6.66692 6.75465 6.66672Z" fill="#334EAC"/>
<path d="M6.75465 13.3333H3.24632C3.10781 13.3331 2.97208 13.3721 2.85484 13.4458C2.73759 13.5196 2.64363 13.625 2.58382 13.7499C2.51381 13.8982 2.48684 14.0631 2.50599 14.2259C2.52515 14.3887 2.58965 14.5429 2.69215 14.6708L4.44632 16.7958C4.51516 16.8752 4.60027 16.9389 4.69588 16.9826C4.7915 17.0262 4.89538 17.0488 5.00049 17.0488C5.1056 17.0488 5.20948 17.0262 5.30509 16.9826C5.4007 16.9389 5.48581 16.8752 5.55465 16.7958L7.30882 14.6708C7.41132 14.5429 7.47583 14.3887 7.49498 14.2259C7.51413 14.0631 7.48717 13.8982 7.41715 13.7499C7.35734 13.625 7.26338 13.5196 7.14613 13.4458C7.02889 13.3721 6.89316 13.3331 6.75465 13.3333Z" fill="#334EAC"/>
</svg>
