<svg width="20" height="20" viewBox="0 0 20 20" fill="none" xmlns="http://www.w3.org/2000/svg">
<g clip-path="url(#clip0_2437_1997)">
<path d="M3.84125 16.7842L0.0912495 13.0342C0.0474339 12.9905 0.01758 12.9347 0.005476 12.874C-0.00662804 12.8133 -0.00043869 12.7504 0.0232601 12.6933C0.0469589 12.6361 0.0870991 12.5872 0.138592 12.5529C0.190084 12.5186 0.250612 12.5003 0.3125 12.5004H3.125V4.06292C3.125 3.81428 3.22377 3.57582 3.39959 3.40001C3.5754 3.22419 3.81386 3.12542 4.0625 3.12542C4.31114 3.12542 4.5496 3.22419 4.72541 3.40001C4.90123 3.57582 5 3.81428 5 4.06292V12.5004H7.8125C7.87439 12.5003 7.93492 12.5186 7.98641 12.5529C8.0379 12.5872 8.07804 12.6361 8.10174 12.6933C8.12544 12.7504 8.13163 12.8133 8.11952 12.874C8.10742 12.9347 8.07757 12.9905 8.03375 13.0342L4.28375 16.7842C4.25472 16.8133 4.22024 16.8364 4.18227 16.8521C4.14431 16.8679 4.1036 16.876 4.0625 16.876C4.0214 16.876 3.9807 16.8679 3.94273 16.8521C3.90476 16.8364 3.87028 16.8133 3.84125 16.7842ZM20 4.68792C20 4.93656 19.9012 5.17501 19.7254 5.35083C19.5496 5.52664 19.3111 5.62542 19.0625 5.62542H9.6875C9.43886 5.62542 9.2004 5.52664 9.02459 5.35083C8.84877 5.17501 8.75 4.93656 8.75 4.68792C8.75 4.43928 8.84877 4.20082 9.02459 4.02501C9.2004 3.84919 9.43886 3.75042 9.6875 3.75042H19.0625C19.3111 3.75042 19.5496 3.84919 19.7254 4.02501C19.9012 4.20082 20 4.43928 20 4.68792ZM20 9.68792C20 9.93656 19.9012 10.175 19.7254 10.3508C19.5496 10.5266 19.3111 10.6254 19.0625 10.6254H13.4375C13.1889 10.6254 12.9504 10.5266 12.7746 10.3508C12.5988 10.175 12.5 9.93656 12.5 9.68792C12.5 9.43928 12.5988 9.20082 12.7746 9.02501C12.9504 8.84919 13.1889 8.75042 13.4375 8.75042H19.0625C19.3111 8.75042 19.5496 8.84919 19.7254 9.02501C19.9012 9.20082 20 9.43928 20 9.68792ZM20 14.6879C20 14.9366 19.9012 15.175 19.7254 15.3508C19.5496 15.5266 19.3111 15.6254 19.0625 15.6254H15.9375C15.6889 15.6254 15.4504 15.5266 15.2746 15.3508C15.0988 15.175 15 14.9366 15 14.6879C15 14.4393 15.0988 14.2008 15.2746 14.025C15.4504 13.8492 15.6889 13.7504 15.9375 13.7504H19.0625C19.3111 13.7504 19.5496 13.8492 19.7254 14.025C19.9012 14.2008 20 14.4393 20 14.6879Z" fill="#334EAC"/>
</g>
<defs>
<clipPath id="clip0_2437_1997">
<rect width="20" height="20" fill="white" transform="matrix(-1 0 0 -1 20 20)"/>
</clipPath>
</defs>
</svg>
