<svg width="9" height="9" viewBox="0 0 9 9" fill="none" xmlns="http://www.w3.org/2000/svg">
<path d="M3.52944 0.580968C3.88686 -0.193904 4.98814 -0.193902 5.34556 0.580969L5.89587 1.77404C6.04154 2.08985 6.34082 2.30729 6.68618 2.34824L7.99092 2.50294C8.83831 2.60341 9.17863 3.6508 8.55213 4.23017L7.58751 5.12223C7.33217 5.35835 7.21785 5.71018 7.28563 6.0513L7.54169 7.33998C7.708 8.17695 6.81704 8.82427 6.07243 8.40747L4.92594 7.76571C4.62247 7.59584 4.25253 7.59584 3.94906 7.76571L2.80257 8.40747C2.05796 8.82427 1.167 8.17695 1.33331 7.33998L1.58937 6.0513C1.65715 5.71018 1.54283 5.35835 1.28749 5.12223L0.322866 4.23017C-0.303634 3.6508 0.036684 2.60341 0.884078 2.50294L2.18881 2.34824C2.53418 2.30729 2.83346 2.08985 2.97913 1.77404L3.52944 0.580968Z" fill="#FFCC00"/>
</svg>
