<svg width="18" height="18" viewBox="0 0 18 18" fill="none" xmlns="http://www.w3.org/2000/svg">
<g clip-path="url(#clip0_1924_3665)">
<path d="M17.8784 6.59559C17.725 6.10726 17.4185 5.68127 17.0042 5.38061C16.59 5.07995 16.0899 4.92059 15.5781 4.92609H12.3014L11.3061 1.82409C11.1496 1.33581 10.8421 0.909848 10.4278 0.607637C10.0136 0.305425 9.51412 0.142578 9.00137 0.142578C8.48861 0.142578 7.98911 0.305425 7.57489 0.607637C7.16066 0.909848 6.85312 1.33581 6.69662 1.82409L5.70137 4.92609H2.42462C1.91442 4.92682 1.41751 5.08875 1.00485 5.38877C0.592191 5.68878 0.284896 6.11153 0.126856 6.59663C-0.0311831 7.08173 -0.0318826 7.60436 0.124858 8.08988C0.281598 8.5754 0.587761 8.99897 0.999615 9.30009L3.66662 11.2501L2.65262 14.3903C2.48875 14.8774 2.48667 15.4043 2.6467 15.8927C2.80672 16.381 3.12028 16.8045 3.54062 17.1001C3.95375 17.4052 4.45441 17.5686 4.96798 17.566C5.48155 17.5635 5.98055 17.395 6.39062 17.0858L9.00137 15.1643L11.6129 17.0836C12.0253 17.3869 12.5232 17.5517 13.0351 17.5542C13.5471 17.5567 14.0466 17.3968 14.4619 17.0975C14.8773 16.7982 15.187 16.3749 15.3466 15.8884C15.5062 15.402 15.5074 14.8775 15.3501 14.3903L14.3361 11.2501L17.0061 9.30009C17.4227 9.00275 17.7324 8.57919 17.8895 8.0921C18.0466 7.60501 18.0427 7.08028 17.8784 6.59559ZM16.1211 8.08884L13.0131 10.3606C12.8855 10.4537 12.7905 10.5848 12.7417 10.7351C12.693 10.8854 12.6929 11.0473 12.7416 11.1976L13.9229 14.8501C13.9826 15.0353 13.9821 15.2348 13.9214 15.4197C13.8607 15.6047 13.7429 15.7656 13.5849 15.8794C13.427 15.9931 13.237 16.0539 13.0424 16.0529C12.8477 16.0519 12.6584 15.9892 12.5016 15.8738L9.44537 13.6238C9.31664 13.5293 9.16109 13.4783 9.00137 13.4783C8.84164 13.4783 8.68609 13.5293 8.55737 13.6238L5.50112 15.8738C5.34443 15.9908 5.15457 16.0548 4.95906 16.0565C4.76356 16.0583 4.57257 15.9978 4.41379 15.8837C4.255 15.7696 4.13668 15.608 4.07596 15.4221C4.01525 15.2363 4.0153 15.0359 4.07612 14.8501L5.26112 11.1976C5.3098 11.0473 5.30977 10.8854 5.26101 10.7351C5.21226 10.5848 5.11727 10.4537 4.98962 10.3606L1.88162 8.08884C1.72509 7.97424 1.60879 7.8131 1.54932 7.62845C1.48985 7.44379 1.49026 7.24507 1.55048 7.06066C1.6107 6.87625 1.72766 6.71559 1.88465 6.60163C2.04163 6.48766 2.23062 6.42623 2.42462 6.42609H6.24962C6.4084 6.42608 6.56309 6.37568 6.6914 6.28214C6.81971 6.18861 6.91503 6.05676 6.96362 5.90559L8.12612 2.28234C8.18579 2.09693 8.30275 1.93523 8.46017 1.82052C8.61759 1.70582 8.80734 1.64402 9.00212 1.64402C9.19689 1.64402 9.38665 1.70582 9.54406 1.82052C9.70148 1.93523 9.81844 2.09693 9.87811 2.28234L11.0406 5.90559C11.0892 6.05676 11.1845 6.18861 11.3128 6.28214C11.4411 6.37568 11.5958 6.42608 11.7546 6.42609H15.5796C15.7736 6.42623 15.9626 6.48766 16.1196 6.60163C16.2766 6.71559 16.3935 6.87625 16.4538 7.06066C16.514 7.24507 16.5144 7.44379 16.4549 7.62845C16.3954 7.8131 16.2791 7.97424 16.1226 8.08884H16.1211Z" fill="#989593"/>
</g>
<defs>
<clipPath id="clip0_1924_3665">
<rect width="18" height="18" fill="white"/>
</clipPath>
</defs>
</svg>
