<svg width="17" height="16" viewBox="0 0 17 16" fill="none" xmlns="http://www.w3.org/2000/svg">
<path d="M7.33413 0.580968C7.69154 -0.193903 8.79283 -0.193902 9.15024 0.580969L10.8291 4.22073C10.9748 4.53654 11.2741 4.75398 11.6194 4.79493L15.5998 5.26687C16.4472 5.36734 16.7875 6.41473 16.161 6.9941L13.2182 9.71554C12.9629 9.95166 12.8486 10.3035 12.9163 10.6446L13.6975 14.576C13.8638 15.413 12.9729 16.0603 12.2283 15.6435L8.73063 13.6857C8.42716 13.5158 8.05722 13.5158 7.75375 13.6857L4.25612 15.6435C3.51151 16.0603 2.62055 15.413 2.78685 14.576L3.56803 10.6446C3.6358 10.3035 3.52149 9.95166 3.26615 9.71554L0.323328 6.9941C-0.303172 6.41473 0.0371455 5.36734 0.884539 5.26687L4.86495 4.79493C5.21032 4.75398 5.5096 4.53654 5.65527 4.22073L7.33413 0.580968Z" fill="#FFCC00"/>
</svg>
