<svg width="120" height="120" viewBox="0 0 120 120" fill="none" xmlns="http://www.w3.org/2000/svg">
<path d="M60 7.5C49.6165 7.5 39.4662 10.5791 30.8326 16.3478C22.199 22.1166 15.4699 30.316 11.4963 39.9091C7.52275 49.5022 6.48307 60.0582 8.5088 70.2422C10.5345 80.4262 15.5347 89.7808 22.8769 97.1231C30.2192 104.465 39.5738 109.465 49.7578 111.491C59.9418 113.517 70.4978 112.477 80.0909 108.504C89.684 104.53 97.8834 97.801 103.652 89.1674C109.421 80.5339 112.5 70.3835 112.5 60C112.5 46.0761 106.969 32.7226 97.1231 22.8769C87.2775 13.0312 73.9239 7.5 60 7.5ZM52.5 80.9625L33.75 62.2125L39.7125 56.25L52.5 69.0375L80.2875 41.25L86.2725 47.1975L52.5 80.9625Z" fill="#279543"/>
</svg>
