<svg width="78" height="40" viewBox="0 0 78 40" fill="none" xmlns="http://www.w3.org/2000/svg">
<rect width="77.9" height="40" rx="8" fill="#EFEDED"/>
<g clip-path="url(#clip0_2471_1771)">
<path d="M32.4664 8.30737L25.4102 25.1406H20.8069L17.3344 11.7061C17.1239 10.8806 16.941 10.5768 16.3003 10.2278C15.2532 9.65895 13.5239 9.12695 12.0039 8.796L12.1064 8.30737H19.5178C20.461 8.30737 21.3102 8.93537 21.5262 10.0227L23.361 19.7644L27.8906 8.30737H32.4664ZM38.6896 8.30737L35.089 25.1406H30.7336L34.3346 8.30737H38.6896ZM50.5035 19.6446C50.5216 15.2027 44.3616 14.9562 44.4018 12.9716C44.4165 12.3682 44.9913 11.7259 46.2494 11.5617C46.8725 11.4811 48.5942 11.4168 50.5443 12.3154L51.3073 8.74358C50.2595 8.36463 48.9111 8 47.2338 8C42.9285 8 39.9001 10.2867 39.8759 13.5638C39.8477 15.9878 42.0391 17.3387 43.6871 18.1461C45.3845 18.9705 45.9538 19.5004 45.946 20.2373C45.9338 21.3667 44.5902 21.8667 43.3412 21.8853C41.1509 21.92 39.8812 21.2933 38.8683 20.8215L38.0778 24.5116C39.0967 24.9785 40.9746 25.3842 42.9197 25.4048C47.4965 25.4048 50.49 23.1442 50.5035 19.6446ZM61.8719 25.1408H65.8986L62.3807 8.30737H58.6656C57.8277 8.30737 57.1235 8.79368 56.8111 9.54126L50.2763 25.1406H54.8496L55.7567 22.6261H61.3441L61.8719 25.1408ZM57.0109 19.1768L59.3039 12.8554L60.6212 19.1768H57.0109ZM44.2635 29.7743H42.4938V31.4213H44.4732V31.9164H41.8976V27.3474H44.3717V27.8425H42.4938V29.2861H44.2633L44.2635 29.7743ZM45.3875 27.1036H45.9837V31.9162H45.3875V27.1036ZM47.4881 30.3842C47.5016 31.1912 48.0102 31.5232 48.6132 31.5232C49.0405 31.5232 49.3047 31.4486 49.522 31.3539L49.6302 31.7811C49.4201 31.8758 49.0542 31.9909 48.5319 31.9909C47.5222 31.9909 46.9191 31.32 46.9191 30.3301C46.9191 29.3406 47.5016 28.5676 48.4576 28.5676C49.5355 28.5676 49.8134 29.5034 49.8134 30.1065C49.8134 30.2284 49.8064 30.3164 49.7927 30.3844L47.4881 30.3842ZM49.237 29.9573C49.2439 29.5846 49.0812 28.9947 48.41 28.9947C47.7999 28.9947 47.5422 29.5438 47.4946 29.9573H49.237ZM53.0589 31.8011C52.9031 31.8758 52.5572 31.9912 52.1167 31.9912C51.1271 31.9912 50.4831 31.32 50.4831 30.3166C50.4831 29.3065 51.1742 28.5678 52.2454 28.5678C52.5978 28.5678 52.9096 28.6556 53.0723 28.744L52.9372 29.1981C52.7942 29.1236 52.5706 29.0419 52.2454 29.0419C51.4927 29.0419 51.0864 29.6046 51.0864 30.2829C51.0864 31.0419 51.5744 31.5097 52.2252 31.5097C52.5641 31.5097 52.7877 31.4284 52.9572 31.3539L53.0589 31.8011ZM54.7321 27.8491V28.6354H55.586V29.0893H54.7321V30.8587C54.7321 31.2659 54.8475 31.496 55.1795 31.496C55.342 31.496 55.4372 31.4827 55.5254 31.4552L55.5525 31.9099C55.4372 31.9503 55.2542 31.9909 55.0237 31.9909C54.7456 31.9909 54.5218 31.896 54.3797 31.7404C54.217 31.5571 54.1492 31.2659 54.1492 30.8794V29.0893H53.6405V28.6354H54.1492V28.0253L54.7321 27.8491ZM56.4191 29.6592C56.4191 29.2726 56.4119 28.9406 56.3919 28.6354H56.914L56.9414 29.2859H56.9612C57.1106 28.8457 57.4763 28.5676 57.8761 28.5676C57.9374 28.5676 57.985 28.5745 58.0393 28.5811V29.144C57.9782 29.1301 57.9174 29.1301 57.8355 29.1301C57.4157 29.1301 57.117 29.4419 57.0359 29.8897C57.0219 29.9816 57.0151 30.0746 57.0155 30.1676V31.9166H56.4191V29.6592ZM61.7056 30.2486C61.7056 31.4621 60.858 31.9909 60.0719 31.9909C59.1904 31.9909 58.4993 31.34 58.4993 30.3032C58.4993 29.2116 59.2245 28.5678 60.1262 28.5678C61.0683 28.5678 61.7056 29.2518 61.7056 30.2486ZM59.1092 30.2829C59.1092 31.0015 59.5159 31.544 60.0989 31.544C60.6685 31.544 61.0953 31.008 61.0953 30.2693C61.0953 29.7135 60.8174 29.0149 60.1123 29.0149C59.4144 29.0149 59.1092 29.6661 59.1092 30.2829ZM62.6197 29.5236C62.6197 29.1781 62.6125 28.9067 62.5923 28.6358H63.1212L63.1551 29.1781H63.1685C63.3313 28.8728 63.7109 28.568 64.2532 28.568C64.7071 28.568 65.4123 28.8392 65.4123 29.964V31.9166H64.8159V30.0253C64.8159 29.4968 64.6193 29.0558 64.0568 29.0558C63.6702 29.0558 63.365 29.3339 63.257 29.6659C63.2296 29.7406 63.2161 29.8421 63.2161 29.944V31.9166H62.6197V29.5236Z" fill="#1A1F71"/>
</g>
<defs>
<clipPath id="clip0_2471_1771">
<rect width="53.9" height="24" fill="white" transform="translate(12 8)"/>
</clipPath>
</defs>
</svg>
