<svg width="34" height="34" viewBox="0 0 34 34" fill="none" xmlns="http://www.w3.org/2000/svg">
<rect width="34" height="34" rx="8" fill="#FFF8E6"/>
<g clip-path="url(#clip0_1197_1475)">
<path d="M26 17C26 17.1989 25.921 17.3897 25.7803 17.5303C25.6397 17.671 25.4489 17.75 25.25 17.75C25.0511 17.75 24.8603 17.671 24.7197 17.5303C24.579 17.3897 24.5 17.1989 24.5 17C24.4978 15.0115 23.7069 13.1052 22.3009 11.6991C20.8948 10.2931 18.9885 9.50218 17 9.5C16.8011 9.5 16.6103 9.42098 16.4697 9.28033C16.329 9.13968 16.25 8.94891 16.25 8.75C16.25 8.55109 16.329 8.36032 16.4697 8.21967C16.6103 8.07902 16.8011 8 17 8C19.3862 8.00258 21.6738 8.95162 23.3611 10.6389C25.0484 12.3262 25.9974 14.6138 26 17ZM20 17.75C20.1989 17.75 20.3897 17.671 20.5303 17.5303C20.671 17.3897 20.75 17.1989 20.75 17C20.75 16.8011 20.671 16.6103 20.5303 16.4697C20.3897 16.329 20.1989 16.25 20 16.25H18.2922C18.1615 16.0253 17.9747 15.8385 17.75 15.7078V13.25C17.75 13.0511 17.671 12.8603 17.5303 12.7197C17.3897 12.579 17.1989 12.5 17 12.5C16.8011 12.5 16.6103 12.579 16.4697 12.7197C16.329 12.8603 16.25 13.0511 16.25 13.25V15.7078C16.0511 15.8223 15.8812 15.9811 15.7535 16.1718C15.6258 16.3626 15.5437 16.5801 15.5136 16.8077C15.4836 17.0353 15.5062 17.2667 15.58 17.4841C15.6537 17.7014 15.7764 17.8989 15.9388 18.0612C16.1011 18.2236 16.2986 18.3463 16.5159 18.42C16.7333 18.4938 16.9647 18.5164 17.1923 18.4864C17.4199 18.4563 17.6374 18.3742 17.8282 18.2465C18.0189 18.1188 18.1777 17.9489 18.2922 17.75H20ZM9.37025 13.088C9.22191 13.088 9.07691 13.132 8.95357 13.2144C8.83024 13.2968 8.73411 13.4139 8.67734 13.551C8.62057 13.688 8.60572 13.8388 8.63466 13.9843C8.6636 14.1298 8.73503 14.2634 8.83992 14.3683C8.94481 14.4732 9.07845 14.5446 9.22393 14.5736C9.36942 14.6025 9.52022 14.5877 9.65726 14.5309C9.79431 14.4741 9.91144 14.378 9.99385 14.2547C10.0763 14.1313 10.1203 13.9863 10.1203 13.838C10.1203 13.6391 10.0412 13.4483 9.90058 13.3077C9.75993 13.167 9.56916 13.088 9.37025 13.088ZM9.5 17C9.5 16.8517 9.45601 16.7067 9.3736 16.5833C9.29119 16.46 9.17406 16.3639 9.03701 16.3071C8.89997 16.2503 8.74917 16.2355 8.60368 16.2644C8.4582 16.2934 8.32456 16.3648 8.21967 16.4697C8.11478 16.5746 8.04335 16.7082 8.01441 16.8537C7.98547 16.9992 8.00032 17.15 8.05709 17.287C8.11386 17.4241 8.20999 17.5412 8.33332 17.6236C8.45666 17.706 8.60166 17.75 8.75 17.75C8.94891 17.75 9.13968 17.671 9.28033 17.5303C9.42098 17.3897 9.5 17.1989 9.5 17ZM17 24.5C16.8517 24.5 16.7067 24.544 16.5833 24.6264C16.46 24.7088 16.3639 24.8259 16.3071 24.963C16.2503 25.1 16.2355 25.2508 16.2644 25.3963C16.2934 25.5418 16.3648 25.6754 16.4697 25.7803C16.5746 25.8852 16.7082 25.9566 16.8537 25.9856C16.9992 26.0145 17.15 25.9997 17.287 25.9429C17.4241 25.8861 17.5412 25.79 17.6236 25.6667C17.706 25.5433 17.75 25.3983 17.75 25.25C17.75 25.0511 17.671 24.8603 17.5303 24.7197C17.3897 24.579 17.1989 24.5 17 24.5ZM11.1658 10.4053C11.0174 10.4053 10.8724 10.4492 10.7491 10.5316C10.6257 10.6141 10.5296 10.7312 10.4728 10.8682C10.4161 11.0053 10.4012 11.1561 10.4302 11.3016C10.4591 11.4471 10.5305 11.5807 10.6354 11.6856C10.7403 11.7905 10.8739 11.8619 11.0194 11.8908C11.1649 11.9198 11.3157 11.9049 11.4528 11.8482C11.5898 11.7914 11.7069 11.6953 11.7894 11.5719C11.8718 11.4486 11.9158 11.3036 11.9158 11.1552C11.9158 10.9563 11.8367 10.7656 11.6961 10.6249C11.5554 10.4843 11.3647 10.4053 11.1658 10.4053ZM13.8343 8.63075C13.6859 8.63075 13.5409 8.67474 13.4176 8.75715C13.2942 8.83956 13.1981 8.95669 13.1413 9.09374C13.0846 9.23078 13.0697 9.38158 13.0987 9.52707C13.1276 9.67255 13.199 9.80619 13.3039 9.91108C13.4088 10.016 13.5424 10.0874 13.6879 10.1163C13.8334 10.1453 13.9842 10.1304 14.1213 10.0737C14.2583 10.0169 14.3754 9.92076 14.4579 9.79743C14.5403 9.67409 14.5843 9.52909 14.5843 9.38075C14.5843 9.18184 14.5052 8.99107 14.3646 8.85042C14.2239 8.70977 14.0332 8.63075 13.8343 8.63075ZM9.37025 19.412C9.22191 19.412 9.07691 19.456 8.95357 19.5384C8.83024 19.6208 8.73411 19.7379 8.67734 19.875C8.62057 20.012 8.60572 20.1628 8.63466 20.3083C8.6636 20.4538 8.73503 20.5874 8.83992 20.6923C8.94481 20.7972 9.07845 20.8686 9.22393 20.8976C9.36942 20.9265 9.52022 20.9117 9.65726 20.8549C9.79431 20.7981 9.91144 20.702 9.99385 20.5787C10.0763 20.4553 10.1203 20.3103 10.1203 20.162C10.1203 19.9631 10.0412 19.7723 9.90058 19.6317C9.75993 19.491 9.56916 19.412 9.37025 19.412ZM11.1658 22.0947C11.0174 22.0947 10.8724 22.1387 10.7491 22.2211C10.6257 22.3036 10.5296 22.4207 10.4728 22.5577C10.4161 22.6948 10.4012 22.8456 10.4302 22.9911C10.4591 23.1366 10.5305 23.2702 10.6354 23.3751C10.7403 23.48 10.8739 23.5514 11.0194 23.5803C11.1649 23.6093 11.3157 23.5944 11.4528 23.5377C11.5898 23.4809 11.7069 23.3848 11.7894 23.2614C11.8718 23.1381 11.9158 22.9931 11.9158 22.8447C11.9158 22.6458 11.8367 22.4551 11.6961 22.3144C11.5554 22.1738 11.3647 22.0947 11.1658 22.0947ZM13.8343 23.8693C13.6859 23.8693 13.5409 23.9132 13.4176 23.9956C13.2942 24.0781 13.1981 24.1952 13.1413 24.3322C13.0846 24.4693 13.0697 24.6201 13.0987 24.7656C13.1276 24.9111 13.199 25.0447 13.3039 25.1496C13.4088 25.2545 13.5424 25.3259 13.6879 25.3548C13.8334 25.3838 13.9842 25.3689 14.1213 25.3122C14.2583 25.2554 14.3754 25.1593 14.4579 25.0359C14.5403 24.9126 14.5843 24.7676 14.5843 24.6193C14.5843 24.4203 14.5052 24.2296 14.3646 24.0889C14.2239 23.9483 14.0332 23.8693 13.8343 23.8693ZM24.6297 19.412C24.4814 19.412 24.3364 19.456 24.2131 19.5384C24.0897 19.6208 23.9936 19.7379 23.9368 19.875C23.8801 20.012 23.8652 20.1628 23.8942 20.3083C23.9231 20.4538 23.9945 20.5874 24.0994 20.6923C24.2043 20.7972 24.3379 20.8686 24.4834 20.8976C24.6289 20.9265 24.7797 20.9117 24.9168 20.8549C25.0538 20.7981 25.1709 20.702 25.2534 20.5787C25.3358 20.4553 25.3797 20.3103 25.3797 20.162C25.3797 19.9631 25.3007 19.7723 25.1601 19.6317C25.0194 19.491 24.8287 19.412 24.6297 19.412ZM22.8342 22.0947C22.6859 22.0947 22.5409 22.1387 22.4176 22.2211C22.2942 22.3036 22.1981 22.4207 22.1413 22.5577C22.0846 22.6948 22.0697 22.8456 22.0987 22.9911C22.1276 23.1366 22.199 23.2702 22.3039 23.3751C22.4088 23.48 22.5424 23.5514 22.6879 23.5803C22.8334 23.6093 22.9842 23.5944 23.1213 23.5377C23.2583 23.4809 23.3754 23.3848 23.4579 23.2614C23.5403 23.1381 23.5842 22.9931 23.5842 22.8447C23.5842 22.6458 23.5052 22.4551 23.3646 22.3144C23.2239 22.1738 23.0332 22.0947 22.8342 22.0947ZM20.1658 23.8693C20.0174 23.8693 19.8724 23.9132 19.7491 23.9956C19.6257 24.0781 19.5296 24.1952 19.4728 24.3322C19.4161 24.4693 19.4012 24.6201 19.4302 24.7656C19.4591 24.9111 19.5305 25.0447 19.6354 25.1496C19.7403 25.2545 19.8739 25.3259 20.0194 25.3548C20.1649 25.3838 20.3157 25.3689 20.4528 25.3122C20.5898 25.2554 20.7069 25.1593 20.7894 25.0359C20.8718 24.9126 20.9158 24.7676 20.9158 24.6193C20.9158 24.4203 20.8367 24.2296 20.6961 24.0889C20.5554 23.9483 20.3647 23.8693 20.1658 23.8693Z" fill="#59523D"/>
</g>
<defs>
<clipPath id="clip0_1197_1475">
<rect width="18" height="18" fill="white" transform="translate(8 8)"/>
</clipPath>
</defs>
</svg>
